<?xml version="1.0" encoding="UTF-8"?>
<!-- Created with Inkscape (http://www.inkscape.org/) -->
<svg width="438.64mm" height="80.899mm" fill="white" version="1.1" viewBox="0 0 438.64 80.899" xmlns="http://www.w3.org/2000/svg" xmlns:cc="http://creativecommons.org/ns#" xmlns:dc="http://purl.org/dc/elements/1.1/" xmlns:rdf="http://www.w3.org/1999/02/22-rdf-syntax-ns#">
 <metadata>
  <rdf:RDF>
   <cc:Work rdf:about="">
    <dc:format>image/svg+xml</dc:format>
    <dc:type rdf:resource="http://purl.org/dc/dcmitype/StillImage"/>
    <dc:title/>
   </cc:Work>
  </rdf:RDF>
 </metadata>
 <g transform="translate(87.477 -119.45)">
  <path d="m307.55 199.95c-0.62783-0.27733-1.346-0.36141-2.2301-0.26109-0.71724 0.0814-1.4316 0.0475-1.5875-0.0753-0.1559-0.12278-0.72718-0.36616-1.2696-0.54083-0.84447-0.27197-1.1-0.25032-1.7788 0.15067-0.77025 0.45501-0.82399 0.45158-1.8968-0.12106-0.60728-0.32413-1.706-0.65635-2.4416-0.73827-0.91426-0.1018-1.7046-0.41346-2.4975-0.98488-1.8975-1.3674-3.0662-2.0176-3.6346-2.0222-0.29457-2e-3 -1.4787-0.54181-2.6314-1.1987-1.1527-0.65689-2.5628-1.3201-3.1337-1.4738-1.2562-0.33826-3.3976-2.269-4.0262-3.6301-0.24837-0.53779-0.61868-1.335-0.82291-1.7715-0.20421-0.43657-0.99835-1.4623-1.7648-2.2794-0.7664-0.81707-1.7707-2.1863-2.2319-3.0427-0.46112-0.85642-1.2304-1.9929-1.7096-2.5255-2.3453-2.6071-2.5311-2.9046-2.7158-4.3476-0.0696-0.54347-0.40775-1.4152-0.7515-1.9371-0.8124-1.2336-1.0393-2.2024-0.71532-3.0546 0.18909-0.49736 0.15375-0.99553-0.12801-1.8043-0.47802-1.3721-0.49202-1.8982-0.0686-2.5762 0.2725-0.43634 0.22479-0.81439-0.28064-2.2237-0.4123-1.1496-0.55639-1.9826-0.44619-2.5796 0.0978-0.52985 0-1.3435-0.24853-2.0393-0.54207-1.5258-0.51972-1.9334 0.14523-2.6471 0.40463-0.43434 0.52203-0.82701 0.43014-1.439-0.088-0.58588 0.0444-1.0828 0.43569-1.6354 0.41256-0.58269 0.577-1.2511 0.61835-2.5136 0.031-0.94588 0.11028-2.4342 0.17624-3.3073 0.066-0.87312 0.12991-1.7271 0.14211-1.8977 0.0122-0.17061 0.43984-0.44804 0.95028-0.6165 0.9974-0.32917 1.4521-0.92307 1.4549-1.9002 0-0.33699 0.24111-0.9699 0.53371-1.4065 0.42442-0.63329 0.5016-1.0612 0.38174-2.1167-0.13438-1.1838-0.0722-1.4108 0.59079-2.1582 0.40754-0.45941 1.3006-1.0948 1.9846-1.412 1.4743-0.6837 2.4774-1.6224 2.7057-2.5322 0.31025-1.2362 1.7786-3.299 2.6266-3.69 0.96269-0.44387 3.0656-1.867 4.4042-2.9806 0.50932-0.4237 1.3099-0.90075 1.779-1.0601 0.46916-0.15938 1.2093-0.65423 1.6447-1.0997 0.62394-0.63828 1.0175-0.80992 1.8569-0.80992 0.84021 0 1.2086-0.16099 1.7443-0.76223 0.60423-0.67812 0.81611-0.74989 1.9203-0.65038 1.0523 0.0948 1.3501 0.01 1.9572-0.56068 0.56248-0.52832 0.9896-0.67254 1.9916-0.67254 0.71318 0 1.5288-0.17734 1.8499-0.40222 0.35348-0.24759 1.0716-0.38462 1.8678-0.35644 0.84884 0.03 1.5761-0.12111 2.1153-0.43964 0.79746-0.47107 0.86437-0.47095 2.262 4e-3 1.2056 0.40981 1.5675 0.43683 2.2216 0.1659 0.60931-0.25238 1.0564-0.25441 2.0301-9e-3 0.93718 0.23598 1.413 0.2396 1.907 0.0145 0.90173-0.41085 1.9413-0.37346 2.8543 0.10264 0.53481 0.27891 1.1412 0.34949 2.0111 0.23409 1.134-0.15042 1.3808-0.0754 2.7574 0.83868 1.1138 0.73955 1.8063 1.0109 2.6299 1.0304 0.762 0.0181 1.558 0.29732 2.5001 0.87705 0.91133 0.56074 1.7203 0.8505 2.3746 0.8505 1.1 0 2.261 0.55168 3.4822 1.6546 0.44368 0.40071 1.6109 1.2452 2.5939 1.8766 1.0472 0.67266 2.5508 2.0144 3.6315 3.2402 1.0144 1.1507 2.6217 2.9025 3.5719 3.893 1.5746 1.6414 2.6337 3.094 2.2559 3.094-0.24924 0 0.38182 1.0315 1.656 2.707 1.006 1.3228 1.215 1.7981 1.2595 2.8639 0.0385 0.92334 0.28728 1.6425 0.89657 2.5919 0.46788 0.72915 0.9354 1.8972 1.0503 2.6242 0.1139 0.7206 0.5915 1.9349 1.0614 2.6985 0.59195 0.96206 0.85727 1.7248 0.86418 2.4842 6e-3 0.60272 0.1347 1.6827 0.28718 2.4 0.26516 1.2475 0.24611 1.3308-0.43855 1.9198-0.39367 0.33862-0.71085 0.82333-0.70485 1.0771 0.0573 2.4219 0.39561 5.1407 0.74089 5.9541 0.34957 0.82344 0.36571 1.1189 0.0937 1.7159-0.18074 0.39666-0.3769 1.2364-0.43593 1.8662-0.10411 1.1104-0.58058 1.9055-1.142 1.9055-0.49167 0-0.85476 1.0572-0.69924 2.0359 0.1061 0.66761-3e-3 1.2522-0.3557 1.9316-0.27932 0.53588-0.50784 1.4285-0.50784 1.9836 0 0.79068-0.18037 1.1778-0.83275 1.7876-0.45802 0.42806-1.1392 1.2636-1.5136 1.8568-0.37449 0.59321-0.89329 1.3066-1.1529 1.5852-0.25964 0.27869-0.54526 0.89677-0.63469 1.3735-0.0894 0.47676-0.39393 1.0762-0.67664 1.332-0.28273 0.25586-0.6531 0.89728-0.82307 1.4254-0.41761 1.2977-0.64484 1.5381-1.6385 1.7338-1.1283 0.22218-3.6264 2.6094-4.3975 4.2021-0.50271 1.0384-0.72207 1.242-1.3382 1.242-0.40528 0-1.2431 0.17859-1.8617 0.39687-0.61867 0.21828-1.406 0.39688-1.7497 0.39688-0.43905 0-0.81939 0.30812-1.2789 1.0361-0.67122 1.0633-1.0717 1.4224-1.6907 1.5161-0.19455 0.0295-0.79626 0.36023-1.3371 0.73505-0.76632 0.53104-1.3056 0.68149-2.4428 0.68149-1.2369 0-1.5494 0.10349-2.0496 0.67883-0.54502 0.62682-0.70149 0.66493-2.0423 0.4974-1.1627-0.14527-1.5491-0.0937-1.9388 0.25902-0.37386 0.33834-0.77012 0.402-1.7093 0.27463-0.97846-0.1327-1.4036-0.054-2.1285 0.39402-0.81378 0.50294-1.0305 0.52844-2.1326 0.25096-0.91821-0.23121-1.3922-0.23347-1.8849-9e-3 -0.87678 0.39949-1.6325 0.3638-2.75-0.12985zm3.4595-24.319c0.43307-0.22395 1.2512-0.37982 1.818-0.34638 0.75513 0.0446 1.3046-0.12908 2.0558-0.64963 0.56383-0.39074 1.3556-0.73778 1.7594-0.7712 0.40386-0.0334 1.1094-0.39563 1.5678-0.80489 0.45842-0.40927 1.0751-0.80662 1.3704-0.88301 0.29527-0.0764 0.72361-0.51326 0.95184-0.97081 0.23997-0.48108 0.89611-1.0863 1.5559-1.4352 1.301-0.68798 1.8661-1.1139 1.8095-1.3638-0.0217-0.0952 0.18153-0.61673 0.45132-1.159 0.40447-0.81287 0.44477-1.186 0.22963-2.1262-0.15171-0.66299-0.16716-1.4685-0.0369-1.9245 0.12324-0.43132 0.22437-1.5265 0.22476-2.4338 0-1.368 0.0894-1.6971 0.52004-1.9275 0.65371-0.34985 0.66159-1.1971 0.0265-2.8292-0.27112-0.69661-0.57028-1.6924-0.66482-2.2128-0.11922-0.6563-0.81944-1.7053-2.2852-3.4233-1.1623-1.3624-2.1133-2.5575-2.1133-2.6558 0-0.30952-1.9546-1.5398-2.6458-1.6655-0.3638-0.0661-1.3015-0.44344-2.0837-0.83851-1.2344-0.62344-1.5664-0.68597-2.5135-0.47349-0.87196 0.19562-1.3759 0.13915-2.5071-0.28094-1.1699-0.43443-1.5075-0.46848-1.9438-0.19604-0.36044 0.22509-1.0321 0.27437-2.1168 0.1553-1.5563-0.17084-1.6036-0.15678-2.3069 0.6857-0.39494 0.47307-1.0079 0.89864-1.3622 0.94572-0.35425 0.0471-1.4304 0.47447-2.3915 0.94976-1.8705 0.92503-2.8983 2.157-3.2829 3.9353-0.10679 0.4937-0.66545 1.4115-1.2415 2.0396-0.60251 0.65693-0.98552 1.3032-0.90173 1.5215 0.0802 0.2091-0.22902 0.80626-0.68871 1.3298l-0.83434 0.95027 0.44453 1.6682c0.24447 0.91753 0.37354 2.0232 0.28678 2.4569-0.10276 0.51377 0.0307 1.2148 0.3829 2.0109 0.31788 0.71861 0.53645 1.7674 0.53042 2.5453-9e-3 1.1781 0.13379 1.5188 1.3047 3.1095 0.72324 0.98253 1.5062 2.1628 1.7399 2.623 0.51083 1.0056 1.6383 1.9416 2.3389 1.9416 0.28001 0 0.4355-0.11906 0.34557-0.26459-0.42391-0.68589 1.1649-0.1478 2.4675 0.83569 1.1745 0.88671 1.6926 1.1082 2.6699 1.1412 0.66693 0.0225 1.5698 0.19384 2.0063 0.38076 2.2538 0.96498 2.0441 0.93689 3.0627 0.41018zm-397.22 22.924-1.2554-0.42428-0.0014-11.134-0.0014-11.134 0.94219-0.28916c0.77116-0.23668 1.2079-0.19777 2.4057 0.21435 1.3369 0.45997 1.5311 0.46856 2.2451 0.0993 0.57972-0.29979 1.0688-0.34782 1.8938-0.18596 1.0699 0.20991 1.1215 0.26604 1.3563 1.4754 0.19292 0.99362 0.15366 1.4468-0.18729 2.1618-0.39352 0.82522-0.39527 1.0106-0.01995 2.1121 0.30374 0.89145 0.34772 1.4665 0.16803 2.1972-0.1836 0.74657-0.1324 1.3194 0.20838 2.3316 0.39503 1.1733 0.40588 1.451 0.08639 2.2108-0.24293 0.57776-0.31072 1.3342-0.20227 2.2569 0.12557 1.0684 0.05883 1.5471-0.28992 2.0793-0.42529 0.64907-0.42594 0.773-0.0107 2.0232 0.29777 0.8965 0.37625 1.613 0.24013 2.1921-0.11122 0.47319-0.17652 1.0466-0.14511 1.2742 0.03141 0.22763-0.24286 0.57441-0.60949 0.77063-0.55133 0.29506-0.91143 0.29802-2.0825 0.0171-1.0613-0.25459-1.5547-0.26537-1.9701-0.043-0.68897 0.36873-1.1802 0.33236-2.7705-0.20512zm52.73 0.061c-0.8617-0.37538-1.2625-0.36787-2.9747 0.0558-0.63629 0.15743-0.7564 0.0709-1.1245-0.81003-0.22665-0.54246-0.4121-1.5644-0.4121-2.271 0-0.8602-0.23642-1.7668-0.71544-2.7435-0.63854-1.302-0.6812-1.5535-0.39688-2.3398 0.17521-0.48454 0.31857-1.4353 0.31857-2.1129 0-1.0334 0.1104-1.3042 0.68505-1.6808 0.58898-0.38591 0.66344-0.58156 0.53097-1.3952-0.08474-0.52046-0.25784-1.7797-0.38465-2.7984-0.12682-1.0186-0.50865-2.4179-0.84852-3.1094-0.54205-1.1029-0.57894-1.3651-0.30039-2.1355 0.17465-0.48299 0.31755-1.355 0.31755-1.9377 0-0.79691 0.16924-1.2186 0.68269-1.7009 0.57017-0.53565 0.65546-0.794 0.51744-1.5675-0.09089-0.50936-0.25627-1.7-0.36752-2.6459-0.11125-0.94588-0.48699-2.2856-0.83499-2.9771-0.55721-1.1072-0.59483-1.3621-0.31517-2.1354 0.17465-0.483 0.31755-1.4325 0.31755-2.1101 0-1.0334 0.1104-1.3042 0.68505-1.6808 0.58898-0.38591 0.66344-0.58156 0.53097-1.3952-0.08474-0.52046-0.25784-1.7797-0.38465-2.7984-0.12682-1.0186-0.50865-2.4179-0.84852-3.1094-0.54205-1.1029-0.57894-1.3651-0.30039-2.1355 0.17465-0.48299 0.31755-1.355 0.31755-1.9377 0-0.79691 0.16924-1.2186 0.68269-1.7009 0.57017-0.53565 0.65546-0.794 0.51744-1.5675-0.09089-0.50936-0.25627-1.7-0.36752-2.6459-0.11125-0.94588-0.48699-2.2856-0.83499-2.9771-0.55721-1.1072-0.59483-1.3621-0.31517-2.1354 0.17465-0.483 0.31755-1.4325 0.31755-2.1101 0-1.0334 0.1104-1.3042 0.68505-1.6808 0.58898-0.38591 0.66344-0.58156 0.53097-1.3952-0.08474-0.52047-0.25784-1.7797-0.38465-2.7984-0.12682-1.0186-0.50865-2.4179-0.84852-3.1094-0.54205-1.1029-0.57894-1.3651-0.30039-2.1354 0.17465-0.48299 0.31755-1.3383 0.31755-1.9007 0-0.67372 0.18902-1.2237 0.55417-1.6124 0.47749-0.50827 0.66389-0.55164 1.3472-0.31344 0.57495 0.20043 1.0631 0.18731 1.7752-0.0477 0.82155-0.27113 1.1474-0.25511 1.9924 0.0979 1.1788 0.49254 2.0899 0.53634 2.8371 0.13642 0.38571-0.20642 0.89092-0.20002 1.8209 0.0231 1.1151 0.2675 1.3926 0.24647 2.0763-0.1574 0.69498-0.41053 0.9607-0.42778 2.2264-0.14452 1.1212 0.2509 1.5909 0.25166 2.1356 3e-3 0.57603-0.26246 0.95277-0.23173 2.1506 0.17543 1.2554 0.42673 1.5797 0.44755 2.3925 0.15364 0.76201-0.27555 1.1882-0.27643 2.2486-5e-3 1.17 0.29986 1.3254 0.42617 1.4696 1.1948 0.08868 0.47271 0.02135 1.2833-0.1496 1.8013-0.27542 0.83452-0.23317 1.1115 0.37067 2.4305 0.40083 0.87553 0.68151 1.9642 0.68151 2.6435 0 0.63517 0.14654 1.7028 0.32564 2.3724 0.32516 1.2157 0.3243 1.2186-0.56657 1.9457-0.81369 0.66411-0.87595 0.81488-0.70744 1.7132 0.10445 0.55675 0.05579 1.3758-0.11193 1.884-0.25359 0.76838-0.21098 1.0832 0.29323 2.1663 0.32446 0.69702 0.67748 2.0412 0.78448 2.9871 0.107 0.94589 0.27715 2.196 0.37811 2.7781 0.16932 0.97623 0.11854 1.1062-0.65463 1.676-0.76564 0.56417-0.82312 0.70685-0.66409 1.6482 0.09772 0.57837 0.03942 1.4386-0.13286 1.9606-0.27063 0.82003-0.22631 1.1063 0.37455 2.4187 0.40083 0.87553 0.68151 1.9642 0.68151 2.6435 0 0.63517 0.14654 1.7028 0.32564 2.3724 0.32516 1.2157 0.3243 1.2186-0.56657 1.9457-0.81369 0.66411-0.87595 0.81488-0.70744 1.7132 0.10445 0.55675 0.05579 1.3758-0.11193 1.884-0.25359 0.76838-0.21098 1.0832 0.29323 2.1663 0.32446 0.69702 0.67748 2.0412 0.78448 2.9871 0.107 0.94589 0.27715 2.196 0.37811 2.7781 0.16932 0.97623 0.11854 1.1062-0.65463 1.676-0.76564 0.56417-0.82312 0.70685-0.66409 1.6482 0.09772 0.57837 0.03942 1.4386-0.13286 1.9606-0.27063 0.82003-0.22631 1.1063 0.37455 2.4187 0.40083 0.87553 0.68151 1.9642 0.68151 2.6435 0 0.63517 0.14654 1.7028 0.32564 2.3724 0.32516 1.2157 0.3243 1.2186-0.56657 1.9458-0.81369 0.6641-0.87595 0.81487-0.70744 1.7131 0.10445 0.55675 0.05579 1.3758-0.11193 1.884-0.25341 0.76784-0.21094 1.0839 0.29109 2.1663 0.32329 0.69702 0.68238 2.1008 0.79799 3.1194 0.1156 1.0186 0.28213 2.1497 0.37007 2.5136 0.14259 0.58992 0.02824 0.71489-1.0573 1.1556-1.0557 0.42856-1.37 0.45132-2.3691 0.17158-0.92392-0.25868-1.3419-0.25384-2.1114 0.0245-0.79151 0.28622-1.1089 0.28622-1.8128 4e-5 -1.4151-0.57531-2.0099-0.6362-2.8431-0.29107-0.63765 0.26412-1.0362 0.26175-2.0138-0.012-1.0823-0.30303-1.3191-0.28725-2.1141 0.1409-0.80044 0.43107-1.0449 0.44627-2.3072 0.14344-1.058-0.25382-1.5509-0.26436-1.9662-0.0421-0.71421 0.38224-1.2993 0.34751-2.4278-0.1441zm65.33-0.0281c-0.76951-0.3442-1.0168-0.66516-1.4005-1.8177-0.42107-1.2648-0.42748-1.4741-0.06655-2.1721 0.27886-0.53925 0.35214-1.1715 0.2428-2.0947-0.11849-1.0005-0.04301-1.5147 0.3101-2.1124 0.43451-0.73557 0.43773-0.87515 0.04659-2.0231-0.26643-0.78193-0.36903-1.6899-0.28047-2.4819 0.08897-0.79564-0.01021-1.6643-0.27324-2.3933-0.36279-1.0054-0.36684-1.2545-0.03345-2.0524 0.25122-0.60126 0.32641-1.3559 0.22251-2.2332-0.12593-1.0633-0.06098-1.4311 0.32883-1.8618 0.4382-0.48421 0.45131-0.6457 0.13382-1.6496-0.19357-0.61206-0.33052-1.8093-0.30434-2.6606 0.02787-0.90643-0.1315-2.0168-0.38463-2.6796-0.39287-1.0287-0.39475-1.2042-0.02066-1.9276 0.29118-0.56308 0.36575-1.1827 0.25495-2.1182-0.11849-1.0005-0.04301-1.5147 0.3101-2.1124 0.43451-0.73557 0.43773-0.87515 0.04659-2.0231-0.26643-0.78192-0.36903-1.6899-0.28047-2.4819 0.08897-0.79564-0.01021-1.6643-0.27324-2.3933-0.36279-1.0054-0.36684-1.2545-0.03345-2.0524 0.25122-0.60126 0.32641-1.3559 0.22251-2.2332-0.12593-1.0633-0.06098-1.4311 0.32883-1.8618 0.4382-0.48421 0.45131-0.6457 0.13382-1.6496-0.19357-0.61206-0.33052-1.8093-0.30434-2.6606 0.02787-0.90643-0.1315-2.0168-0.38463-2.6796-0.39287-1.0287-0.39475-1.2042-0.02066-1.9276 0.29118-0.56308 0.36575-1.1827 0.25495-2.1182-0.11849-1.0005-0.04301-1.5147 0.3101-2.1124 0.43451-0.73557 0.43773-0.87515 0.04659-2.0231-0.26643-0.78192-0.36903-1.6899-0.28047-2.4819 0.08897-0.79564-0.01021-1.6643-0.27324-2.3933-0.3608-0.99992-0.36569-1.2573-0.03876-2.0398 0.24444-0.58502 0.32376-1.3835 0.22883-2.3033-0.11358-1.1004-0.05187-1.4854 0.28259-1.763 0.54337-0.45096 0.53963-0.91192-0.02011-2.4736-0.62933-1.7558-0.30257-2.0366 1.6126-1.3856 1.261 0.42862 1.5764 0.44717 2.4879 0.14636 0.83581-0.27585 1.24-0.27976 2.0281-0.0196 0.84244 0.27803 1.1352 0.2568 2.0314-0.14731 0.91849-0.41419 1.2063-0.43134 2.3442-0.13971 1.0152 0.26018 1.4872 0.26373 2.1714 0.0163 0.72123-0.2608 1.0531-0.24139 1.8962 0.11088 1.1899 0.49719 2.0996 0.54232 2.8489 0.14133 0.38571-0.20642 0.89092-0.20002 1.8209 0.0231 1.1151 0.2675 1.3926 0.24647 2.0763-0.1574 0.69803-0.41233 0.95787-0.42842 2.25-0.13925 1.0476 0.23444 1.6092 0.24751 1.9853 0.0462 0.90579-0.48476 1.3327-0.31232 1.7603 0.71096 0.22789 0.54542 0.85999 1.5277 1.4047 2.1828 1.1768 1.4154 2.0051 2.7994 2.2432 3.7482 0.09515 0.3791 0.60306 1.3281 1.1287 2.1088 1.198 1.7794 1.7274 2.7952 1.6741 3.2119-0.11554 0.90355 0.09151 1.5306 0.79965 2.4217 0.42813 0.53873 1.0338 1.5374 1.346 2.2192 1.0563 2.307 1.6641 3.3533 2.4877 4.2824 1.0538 1.1888 1.8388 2.4732 2.4253 3.9688 0.25685 0.65485 0.86285 1.7148 1.3467 2.3554 0.48382 0.64063 1.0455 1.7232 1.2482 2.4057 0.20269 0.68252 0.63798 1.7657 0.96731 2.4071l0.59879 1.1662 0.28774-0.68163c0.15826-0.3749 0.60693-1.0589 0.99706-1.5199 0.39012-0.46106 0.79392-1.1068 0.89731-1.435 0.10339-0.32821 0.50271-0.97973 0.88738-1.4478 0.38466-0.4681 0.72906-1.2405 0.76533-1.7165 0.04097-0.5377 0.3631-1.172 0.8507-1.675 0.62124-0.64097 0.78475-1.0453 0.78475-1.9404 0-1.2126 0.24279-1.5753 1.3965-2.086 0.40427-0.17895 0.80202-0.53474 0.88389-0.79066 0.37176-1.1621 0.75995-1.6424 1.4497-1.7939 0.86947-0.19097 1.0461-0.60645 0.97295-2.2881-0.02953-0.67854 0.08549-1.5116 0.25561-1.8512 0.17012-0.33962 0.48665-1.0628 0.70341-1.607 0.28117-0.70594 0.68263-1.123 1.4009-1.4552 1.1968-0.55358 1.4913-0.87834 2.2223-2.4501 0.35439-0.76206 0.5454-1.6844 0.53067-2.5624-0.02193-1.3073 0.40022-2.2001 1.0403-2.2001 0.12928 0 0.37614-0.47086 0.54856-1.0464 0.23949-0.79935 0.53867-1.1529 1.2674-1.4978 0.52464-0.24828 1.2864-0.69653 1.6928-0.99612 0.71926-0.53024 0.77291-0.53262 2.0199-0.0897 1.483 0.52671 2.2225 0.56888 2.9692 0.16928 0.38571-0.20642 0.89091-0.20002 1.8209 0.0231 1.1151 0.2675 1.3926 0.24647 2.0763-0.1574 0.69498-0.41053 0.9607-0.42778 2.2264-0.14452 1.1212 0.2509 1.5909 0.25166 2.1356 3e-3 0.57537-0.26216 0.95128-0.23223 2.1344 0.16991 1.253 0.42589 1.5691 0.4442 2.4798 0.14362 0.83581-0.27585 1.24-0.27976 2.0281-0.0196 0.84244 0.27803 1.1352 0.2568 2.0314-0.14731 0.91856-0.41422 1.2063-0.43135 2.3445-0.13963 0.7136 0.18289 1.5408 0.2553 1.8382 0.16091 0.44101-0.13996 0.54071-0.0557 0.54071 0.45711 0 0.34579-0.17481 0.85983-0.38846 1.1423-0.22074 0.29185-0.39209 1.0993-0.39687 1.8702-5e-3 0.8746-0.14944 1.4737-0.40529 1.686-0.51462 0.42709-0.50196 1.1051 0.0434 2.3236 0.24214 0.54103 0.52996 1.7576 0.63961 2.7035 0.10966 0.94589 0.28139 2.2603 0.38163 2.9208 0.14253 0.93918 0.0896 1.2779-0.24274 1.5538-0.29031 0.24094-0.425 0.78761-0.425 1.725 0 0.79696-0.16285 1.5876-0.38846 1.8858-0.51419 0.67982-0.50125 1.2872 0.0493 2.3127 0.25 0.46571 0.5418 1.6802 0.64844 2.6988 0.10664 1.0186 0.27241 2.2994 0.36837 2.8462 0.12397 0.70638 0.0512 1.1823-0.25157 1.6443-0.24562 0.37486-0.42605 1.2007-0.42605 1.95 0 0.83263-0.14265 1.4182-0.39687 1.6292-0.51462 0.42709-0.50196 1.1051 0.0434 2.3236 0.24214 0.54103 0.52996 1.7576 0.63961 2.7035 0.10966 0.94589 0.28139 2.2603 0.38163 2.9208 0.14253 0.93918 0.0896 1.2779-0.24274 1.5538-0.29031 0.24094-0.425 0.78761-0.425 1.725 0 0.79696-0.16285 1.5876-0.38846 1.8858-0.51419 0.67982-0.50125 1.2872 0.0493 2.3127 0.25 0.46571 0.5418 1.6802 0.64844 2.6988 0.10664 1.0186 0.27241 2.2994 0.36837 2.8462 0.12397 0.70638 0.0512 1.1823-0.25157 1.6443-0.24562 0.37486-0.42605 1.2007-0.42605 1.95 0 0.83263-0.14265 1.4182-0.39687 1.6292-0.51462 0.42709-0.50196 1.1051 0.0434 2.3236 0.24214 0.54103 0.52996 1.7576 0.63961 2.7035 0.10966 0.94589 0.28139 2.2603 0.38163 2.9208 0.14253 0.93918 0.0896 1.2779-0.24274 1.5538-0.29031 0.24094-0.425 0.78761-0.425 1.725 0 0.79696-0.16285 1.5876-0.38846 1.8858-0.52854 0.6988-0.49996 1.2751 0.12388 2.498 0.33946 0.66539 0.52917 1.5594 0.52917 2.4937 0 1.8551-0.46892 2.1984-2.3774 1.7406-1.0886-0.26114-1.403-0.23967-2.1505 0.14689-0.7564 0.39115-1.0463 0.40898-2.1307 0.13105-1.0027-0.25699-1.4451-0.253-2.1996 0.0198-0.77406 0.2799-1.0984 0.27892-1.7978-5e-3 -1.4151-0.57531-2.0099-0.6362-2.8431-0.29108-0.63765 0.26413-1.0362 0.26176-2.0138-0.0119-1.0823-0.30303-1.3191-0.28726-2.1141 0.1409-0.80044 0.43107-1.0449 0.44626-2.3072 0.14343-1.058-0.25381-1.5509-0.26436-1.9662-0.0421-0.74816 0.4004-1.3409 0.35642-2.44-0.18105-0.84553-0.41345-0.91754-0.53815-0.83876-1.4525 0.05241-0.60833-0.14426-1.5562-0.50193-2.4192l-0.58811-1.4189 0.55013-0.89014c0.41546-0.67223 0.51454-1.1555 0.40473-1.9742-0.10515-0.78398-0.01492-1.2832 0.32593-1.8034 0.42659-0.65106 0.43701-0.8492 0.10973-2.0869-0.19888-0.75216-0.3335-1.9079-0.29915-2.5682 0.03968-0.76276-0.14007-1.6585-0.49287-2.4561l-0.55533-1.2554 0.52854-0.85521c0.39576-0.64034 0.49171-1.1298 0.38193-1.9483-0.10583-0.78899-0.01209-1.3208 0.33698-1.9117 0.43746-0.74056 0.44908-0.93876 0.12188-2.0779-0.19894-0.69262-0.33731-1.779-0.30749-2.4143 0.03278-0.69837-0.17494-1.7079-0.5254-2.5534l-0.57962-1.3984 0.55828-0.90333c0.42005-0.67966 0.5187-1.1472 0.39843-1.8884-0.11261-0.6939-0.01752-1.2494 0.32169-1.8792 0.43555-0.80877 0.44604-1.0036 0.10976-2.0405l-0.37177-1.1463-0.0898 0.8535c-0.05577 0.53008-0.34983 1.058-0.776 1.3933-0.37741 0.29687-0.96482 0.91742-1.3054 1.379-0.34054 0.46157-0.88139 0.87925-1.2019 0.92816-1.1911 0.18178-1.6085 0.87383-1.4512 2.4061 0.11649 1.1346 0.03489 1.5889-0.4256 2.3694-0.31335 0.53109-0.60371 1.1883-0.64525 1.4605-0.14598 0.95658-0.58055 1.4231-1.6142 1.7328-1.0772 0.32274-1.358 0.77419-1.3654 2.1955-0.0021 0.38236-0.18327 0.84431-0.40286 1.0266-0.21958 0.18223-0.47749 0.82063-0.57311 1.4187-0.1262 0.78921-0.48825 1.4108-1.3205 2.2671-0.63067 0.64887-1.1467 1.2633-1.1467 1.3654s-0.42702 0.61265-0.94893 1.1346c-0.94909 0.94909-1.1093 1.3041-1.1478 2.5436-0.0113 0.3638-0.31808 1.0074-0.6817 1.4302-0.44901 0.5221-0.66114 1.0847-0.66114 1.7535 0 1.369-0.51237 1.7378-1.6191 1.1655-0.75528-0.39057-2.9097-0.63549-5.8334-0.66316-0.81722-8e-3 -1.5933-0.92466-2.6722-3.1569-0.3868-0.80037-1.465-2.2376-2.396-3.194-1.9789-2.0327-2.5363-2.8229-2.7197-3.8564-0.07371-0.41516-0.72289-1.6292-1.4426-2.6978-1.1525-1.7113-1.4729-2.5061-1.3324-3.3052 0.04915-0.27944-0.89057-1.8182-2.0184-3.305-0.47763-0.62966-0.94481-1.4631-1.0382-1.8521-0.26717-1.113-1.1158-2.6601-2.2377-4.0794-0.56758-0.71805-1.0411-1.3841-1.0522-1.4802-0.15339-1.3236-0.43014-1.639-0.65432-0.74581-0.10167 0.40508 0.01429 1.1675 0.28562 1.878 0.43366 1.1355 0.43332 1.2319-0.0068 1.9036-0.35625 0.54371-0.42954 1.0375-0.3165 2.1328 0.09742 0.94395 0.01894 1.732-0.23242 2.3335-0.33569 0.80343-0.32968 1.0329 0.05212 1.9871 0.30123 0.75285 0.38057 1.4513 0.2626 2.312-0.11377 0.83005-0.03046 1.6505 0.25482 2.5094 0.39378 1.1856 0.39171 1.3251-0.02919 1.9675-0.35178 0.53689-0.41566 1.0095-0.28579 2.1144 0.11985 1.0197 0.05507 1.64-0.22855 2.1884-0.35282 0.68227-0.35092 0.88981 0.01744 1.9112 0.27681 0.76754 0.36314 1.5946 0.26152 2.5053-0.1053 0.94375-0.02204 1.6699 0.2723 2.3743 0.3938 0.9425 0.39104 1.076-0.03888 1.8743-0.34576 0.64205-0.42308 1.1956-0.30556 2.1878 0.10537 0.88966 0.02928 1.6348-0.23041 2.2563-0.34222 0.81903-0.34072 1.0405 0.0127 1.8863 0.51852 1.241 0.51596 2.4535-0.0056 2.6536-0.22332 0.0857-0.95187 3e-3 -1.619-0.18381-1.0778-0.30176-1.3138-0.28528-2.118 0.1478-0.80827 0.43528-1.0466 0.45112-2.2289 0.14812-1.0619-0.27215-1.4815-0.27398-2.1206-9e-3 -0.67305 0.27879-1.0201 0.25412-2.2352-0.15891-1.2229-0.41568-1.5743-0.43982-2.3451-0.16109-0.69298 0.25059-1.1848 0.25781-2.087 0.0307-0.99358-0.25019-1.3184-0.22582-2.0529 0.15403-0.76053 0.39329-1.048 0.40916-2.2385 0.12359-1.02-0.24471-1.5062-0.25256-1.9201-0.031-0.73197 0.39173-1.5727 0.33839-2.7142-0.1722zm135.49 0.17733c-0.35521-0.14189-1.01-0.22363-1.4552-0.18167-0.74346 0.0701-0.81631 4e-3 -0.89445-0.81254-0.06-0.62722 0.0815-1.0661 0.48069-1.4911 0.45511-0.48443 0.53072-0.78903 0.38658-1.5573-0.11642-0.62057-0.0389-1.3056 0.22126-1.9559 0.35832-0.89551 0.35772-1.0974-6e-3 -1.9194-0.22338-0.50526-0.50456-1.8116-0.62485-2.903-0.12029-1.0914-0.29563-2.426-0.38964-2.9658-0.13477-0.77374-0.0512-1.1336 0.39504-1.7009 0.45691-0.58086 0.53394-0.93315 0.39975-1.828-0.11269-0.75146-0.0387-1.3551 0.22974-1.8742 0.35233-0.68134 0.35139-0.88198-9e-3 -1.8208-0.22248-0.58029-0.49614-1.8885-0.60815-2.9072-0.11199-1.0186-0.29189-2.3628-0.39976-2.9871-0.1669-0.96586-0.10924-1.2275 0.38696-1.7557 0.47269-0.50316 0.54916-0.80148 0.4039-1.5758-0.11642-0.62057-0.0389-1.3056 0.22126-1.9559 0.35832-0.89551 0.35772-1.0974-6e-3 -1.9194-0.22338-0.50526-0.50457-1.8116-0.62485-2.903-0.12029-1.0914-0.29563-2.426-0.38964-2.9658-0.13477-0.77374-0.0512-1.1336 0.39504-1.7009 0.4569-0.58085 0.53394-0.93314 0.39974-1.828-0.11268-0.75146-0.0387-1.3551 0.22974-1.8742 0.35234-0.68135 0.3514-0.88198-9e-3 -1.8208-0.22248-0.58029-0.49615-1.8885-0.60815-2.9072-0.112-1.0186-0.29189-2.3628-0.39976-2.9871-0.1669-0.96586-0.10924-1.2275 0.38695-1.7557 0.4727-0.50316 0.54916-0.80148 0.40391-1.5758-0.11642-0.62057-0.0389-1.3056 0.22126-1.9559 0.35831-0.89551 0.35771-1.0974-6e-3 -1.9194-0.22334-0.50526-0.50453-1.8116-0.62481-2.903-0.12029-1.0914-0.29563-2.426-0.38964-2.9658-0.13477-0.77374-0.0512-1.1336 0.39504-1.7009 0.4569-0.58086 0.53394-0.93314 0.39975-1.828-0.11269-0.75145-0.0387-1.3551 0.22974-1.8742 0.35258-0.68183 0.35134-0.88132-0.0114-1.8208-0.22404-0.58029-0.46147-1.6777-0.52762-2.4388-0.11169-1.285-0.0714-1.406 0.56458-1.6958 0.53035-0.24164 0.93268-0.23779 1.7834 0.0171 0.94861 0.28421 1.2394 0.26557 2.1314-0.13663 0.90351-0.40743 1.1953-0.42412 2.33-0.1333 1.0152 0.26018 1.4872 0.26373 2.1714 0.0163 0.72123-0.2608 1.0532-0.24139 1.8962 0.11088 1.1899 0.49719 2.0996 0.54232 2.8489 0.14133 0.38571-0.20642 0.89093-0.20002 1.8209 0.0231 1.1151 0.2675 1.3926 0.24647 2.0763-0.1574 0.69498-0.41053 0.96073-0.42778 2.2265-0.14452 1.1211 0.2509 1.5909 0.25166 2.1356 3e-3 0.57537-0.26216 0.95129-0.23223 2.1344 0.16991 1.2529 0.42589 1.5691 0.4442 2.4798 0.14362 0.83581-0.27585 1.24-0.27976 2.0281-0.0196 0.84244 0.27803 1.1352 0.2568 2.0313-0.14731 0.9185-0.41419 1.2063-0.43134 2.3442-0.13971 1.0227 0.26212 1.4847 0.26461 2.184 0.0118 0.7857-0.28412 1.0438-0.24557 2.2633 0.33804 1.1929 0.57091 1.5134 0.62219 2.4034 0.38461 0.82494-0.22018 1.2657-0.18296 2.2402 0.18921 0.66725 0.25483 1.3424 0.38349 1.5003 0.28591 0.7824-0.48355 1.9315-0.39351 3.2289 0.25297 0.74965 0.37357 1.6411 0.67922 1.981 0.67922 0.91564 0 2.3909 0.68471 3.8964 1.8084 0.73414 0.54799 1.8706 1.1983 2.5254 1.4452 1.5331 0.57801 3.4123 2.3105 4.5066 4.1547 0.4749 0.80036 1.27 2.0624 1.7669 2.8045 0.62663 0.9359 0.89275 1.6249 0.86865 2.249-0.0773 2.0026-0.014 2.7573 0.2767 3.3006 0.24138 0.45106 0.21693 0.73997-0.11737 1.3864-0.51625 0.99831-0.52403 1.8228-0.0254 2.695 0.43574 0.76223 0.51888 2.2746 0.13798 2.51-0.14639 0.0905-0.19643 0.75834-0.11512 1.537 0.15735 1.5066 0.32316 1.2197-2.7348 4.7329-0.61846 0.71054-1.1245 1.5097-1.1245 1.7758 0 0.26618-0.32742 0.90567-0.7276 1.4211s-0.93044 1.3057-1.1783 1.7562c-0.35724 0.64917-0.63159 0.82321-1.3229 0.83916-0.47972 0.0111-1.2889 0.18061-1.7982 0.37675l-0.92604 0.35661 0.95649 0.0201c1.06 0.0223 1.6275 0.39412 4.2432 2.7802 0.96803 0.88306 2.4377 2.1924 3.266 2.9096 1.809 1.5664 2.1847 2.1034 2.3942 3.4217 0.088 0.55336 0.62727 1.7292 1.1985 2.613 1.0546 1.6317 1.209 2.1693 0.80555 2.8057-0.13091 0.20655-0.0672 0.98104 0.15254 1.8532 0.34951 1.3876 0.33927 1.5835-0.13857 2.6508-0.39351 0.87896-0.46061 1.353-0.2827 1.9973 0.1805 0.65372 0.11501 1.0768-0.28951 1.8702-0.37359 0.73275-0.47776 1.307-0.36499 2.0122 0.13441 0.84055 0.0553 1.0759-0.53361 1.588-0.58227 0.50628-0.69139 0.82164-0.69139 1.9982 0 0.98031-0.12954 1.4988-0.43426 1.7382-0.23884 0.18764-0.91511 0.84718-1.5028 1.4656-0.91334 0.9611-1.225 1.1251-2.1454 1.1285-1.4381 5e-3 -1.7522 0.25285-1.9213 1.5138-0.11949 0.89087-0.30583 1.1566-1.14 1.6254-0.5484 0.30822-1.196 0.86404-1.4392 1.2352-0.38901 0.59373-0.60708 0.66869-1.8165 0.62438-0.77277-0.0283-1.8057 0.13253-2.3596 0.36742-0.64193 0.27223-1.2411 0.34884-1.7198 0.21989-0.84143-0.22664-1.6607-0.10657-1.6607 0.24339 0 0.43515-1.4348 0.96712-2.1167 0.78482-0.68598-0.18339-2.3812 0.42753-2.3812 0.85812 0 0.13009-0.64963 0.15345-1.4582 0.0524-0.96313-0.12033-1.7316-0.069-2.2634 0.15133-0.68348 0.2831-1.0226 0.25961-2.2436-0.15543-1.2292-0.4178-1.5719-0.44068-2.3558-0.15721-0.70451 0.25476-1.1752 0.26232-2.0284 0.0326-0.9288-0.2501-1.2763-0.22457-2.1197 0.15574-0.86979 0.39223-1.1702 0.4097-2.1804 0.12685-0.94615-0.26491-1.3563-0.26126-2.1312 0.0189-0.7915 0.28621-1.1089 0.28622-1.8128 4e-5 -1.4151-0.57531-2.0098-0.6362-2.8431-0.29108-0.63764 0.26413-1.0362 0.26176-2.0138-0.012-1.0846-0.30366-1.3185-0.28757-2.1239 0.14616-0.80824 0.43528-1.0466 0.45112-2.2288 0.14812-1.0619-0.27215-1.4815-0.27398-2.1206-9e-3 -0.67304 0.27879-1.0201 0.25412-2.2352-0.15891-1.2229-0.41568-1.5743-0.43982-2.3451-0.16109-0.69299 0.25059-1.1848 0.25781-2.087 0.0306-0.97644-0.24587-1.3207-0.22463-1.9929 0.12301-0.91551 0.47343-1.4732 0.50321-2.4108 0.12871zm27.966-19.098c0.18749-0.14511 0.90702-0.18115 1.6498-0.0826 0.98039 0.13005 1.4787 0.069 1.9482-0.23858 0.41654-0.27291 1.146-0.3965 2.1473-0.36379 1.4063 0.046 1.5629-0.01 2.1553-0.76676 0.35137-0.44897 1.0463-0.95077 1.5442-1.1151 0.98531-0.32518 1.2089-0.79923 0.90657-1.9223-0.10774-0.40018-0.0851-1.1138 0.0502-1.5858 0.13536-0.47199 0.24612-1.067 0.24612-1.3222 0-0.77976-1.7648-2.4771-3.1063-2.9875-0.69263-0.26352-1.8287-0.8285-2.5247-1.2555-1.0386-0.6373-1.4415-0.74548-2.249-0.60388-0.541 0.0949-1.5194 0.2324-2.1743 0.30561-0.65484 0.0732-1.6259 0.36667-2.1579 0.65213-0.76401 0.40995-1.1151 0.4628-1.6709 0.2515-0.99129-0.37688-1.1983-0.33728-1.1983 0.22927 0 0.27322-0.1786 0.64499-0.39688 0.82614-0.49718 0.41263-0.50387 1.2177-0.0214 2.585 0.21114 0.59844 0.31501 1.5144 0.23736 2.0932-0.0857 0.63866 0.0228 1.4144 0.28606 2.0443 0.50337 1.2048 0.54624 2.31 0.10661 2.7496-0.24694 0.24694-0.17347 0.31838 0.33072 0.32148 0.35653 2e-3 1.1189 0.16779 1.6941 0.36798 1.0348 0.36015 1.5517 0.31725 2.197-0.18231zm-1.4958-28.646c0.56134-0.29027 1.137-0.35964 1.9602-0.23619 0.95671 0.14347 1.3452 0.0633 2.1687-0.44738 0.55177-0.34218 1.2116-0.63773 1.4662-0.65677 0.25466-0.019 0.69202-0.0495 0.97189-0.0677 0.27988-0.0182 0.87519-0.34131 1.3229-0.71805 0.65037-0.54726 0.81404-0.89052 0.81404-1.7073 0-0.5623 0.13288-1.314 0.29525-1.6704 0.18497-0.40594 0.20968-0.89085 0.0661-1.298-0.3288-0.93286-2.1135-2.9866-3.7769-4.3463l-1.4311-1.1699-2.1407 0.17776c-1.7411 0.14458-2.2669 0.29546-2.8167 0.80826-0.37177 0.34678-0.99788 0.6305-1.3914 0.6305-0.708 0-0.71372 0.0145-0.55111 1.3982 0.12992 1.1053 0.075 1.4723-0.26228 1.7522-0.52771 0.43796-0.54104 1.2212-0.0448 2.6277 0.2128 0.60318 0.31663 1.4835 0.23461 1.989-0.21627 1.3328 0.32729 2.7293 1.1844 3.0429 0.98121 0.35902 1.0323 0.35615 1.9306-0.10841z"/>
 </g>
</svg>
