<?xml version="1.0" encoding="UTF-8"?>
<!-- Created with Inkscape (http://www.inkscape.org/) -->
<svg width="233.33mm" height="78.307mm" version="1.1" viewBox="0 0 233.33 78.307" xmlns="http://www.w3.org/2000/svg" xmlns:cc="http://creativecommons.org/ns#" xmlns:dc="http://purl.org/dc/elements/1.1/" xmlns:rdf="http://www.w3.org/1999/02/22-rdf-syntax-ns#">
 <metadata>
  <rdf:RDF>
   <cc:Work rdf:about="">
    <dc:format>image/svg+xml</dc:format>
    <dc:type rdf:resource="http://purl.org/dc/dcmitype/StillImage"/>
    <dc:title/>
   </cc:Work>
  </rdf:RDF>
 </metadata>
 <g transform="translate(8.108 -112.7)">
  <path d="m-7.5476 190.75c-0.75369-0.30295-0.74879-0.54909 0.02544-1.2764 0.57572-0.54086 0.61759-0.76973 0.5771-3.155-0.029239-1.7228-0.17837-2.8338-0.45174-3.3656-0.24048-0.46775-0.47719-1.8945-0.57635-3.474-0.16148-2.5721-0.14443-2.696 0.42272-3.0726 0.53666-0.35633 0.59437-0.62069 0.6278-2.876 0.027897-1.8821-0.074392-2.7079-0.42232-3.4097-0.29253-0.59001-0.52003-1.894-0.62696-3.5934-0.16114-2.5611-0.14316-2.6905 0.45133-3.249 0.5738-0.53906 0.61596-0.77006 0.57551-3.1535-0.029239-1.7228-0.17837-2.8338-0.45174-3.3656-0.24048-0.46775-0.47719-1.8945-0.57635-3.474-0.16148-2.5721-0.14443-2.696 0.42272-3.0726 0.53666-0.35633 0.59437-0.62069 0.6278-2.876 0.027897-1.8821-0.074392-2.7079-0.42232-3.4097-0.29253-0.59001-0.52003-1.894-0.62696-3.5934-0.16114-2.5611-0.14316-2.6905 0.45133-3.249 0.5738-0.53906 0.61596-0.77006 0.57551-3.1535-0.029239-1.7228-0.17837-2.8338-0.45174-3.3656-0.24048-0.46775-0.47719-1.8945-0.57635-3.474-0.16148-2.5721-0.14443-2.696 0.42272-3.0726 0.53666-0.35633 0.59437-0.62069 0.6278-2.876 0.028997-1.9563-0.068562-2.6921-0.45945-3.4653-0.34533-0.6831-0.49626-1.5481-0.49626-2.8443 0-1.0244 0.041764-1.8626 0.09281-1.8626 0.051045 0 0.47581 0.13352 0.94393 0.2967 0.69872 0.24358 1.0399 0.21157 1.9055-0.17875 0.92618-0.41764 1.212-0.43503 2.3515-0.14299 1.0152 0.26018 1.4872 0.26373 2.1714 0.0163 0.72123-0.2608 1.0531-0.24139 1.8962 0.11088 1.1899 0.49718 2.0996 0.54231 2.8489 0.14133 0.38571-0.20643 0.89092-0.20002 1.8209 0.0231 1.1151 0.2675 1.3926 0.24646 2.0763-0.1574 0.69498-0.41054 0.9607-0.42779 2.2264-0.14453 1.1304 0.25297 1.5888 0.2526 2.147-2e-3 0.58895-0.26834 0.93484-0.24244 2.0323 0.15219 0.81326 0.29245 1.6352 0.41303 2.1346 0.31315l0.81208-0.16241-0.17616 1.1747c-0.13574 0.90518-0.04373 1.4826 0.40099 2.5164 0.4429 1.0295 0.52994 1.5716 0.3742 2.3304-0.11162 0.54381-0.18221 1.5618-0.15686 2.2622 0.0366 1.0114-0.0889 1.4339-0.60987 2.053-0.64159 0.76249-0.64734 0.80855-0.26276 2.1036 0.22709 0.76468 0.32292 1.6986 0.22685 2.2107-0.1167 0.62205 0.0075 1.2909 0.41624 2.241 0.41986 0.97599 0.53105 1.5957 0.3981 2.2186-0.10146 0.47537-0.17053 1.4374-0.15348 2.1378 0.0243 0.99806-0.11085 1.442-0.62495 2.053-0.64159 0.76249-0.64734 0.80854-0.26276 2.1036 0.22709 0.76468 0.32292 1.6986 0.22685 2.2107-0.11686 0.62293 8e-3 1.2919 0.41962 2.2488 0.45111 1.0486 0.53926 1.5897 0.38302 2.3509-0.11162 0.54382-0.18221 1.5618-0.15686 2.2622 0.0366 1.0114-0.0889 1.4339-0.60987 2.053-0.64159 0.76249-0.64734 0.80855-0.26276 2.1036 0.22709 0.76468 0.32292 1.6986 0.22685 2.2107-0.1167 0.62205 0.0075 1.2909 0.41624 2.241 0.41986 0.97599 0.53105 1.5957 0.3981 2.2186-0.10146 0.47537-0.17053 1.4374-0.15348 2.1378 0.02431 0.99864-0.1108 1.442-0.62612 2.0544-0.63794 0.75814-0.64593 0.81753-0.27372 2.0338 0.23449 0.76626 0.32022 1.6897 0.22072 2.3774-0.18254 1.2617-0.13785 1.2931 1.0018 0.70378 0.65647-0.33948 1.0243-0.36689 1.9051-0.14201 0.92024 0.23496 1.2451 0.19897 2.07-0.22937 0.92243-0.47895 1.0492-0.48396 2.213-0.0874 0.96295 0.32811 1.4351 0.35906 2.1465 0.14071 0.73484-0.22553 1.1964-0.18208 2.3755 0.2236 1.342 0.46171 1.529 0.46963 2.2528 0.0953 0.62609-0.32376 1.0424-0.35421 2.0128-0.14724 1.0125 0.21594 1.3838 0.17866 2.1536-0.21626 0.8481-0.4351 1.0432-0.4436 2.2125-0.0964 0.98719 0.29316 1.484 0.31427 2.1583 0.0917 0.72695-0.23991 1.1157-0.19463 2.2847 0.26615 1.3468 0.53085 1.4519 0.53577 2.3919 0.11189 1.201-0.54156 1.5064-0.38932 1.3504 0.67319-0.07757 0.5285 0.13093 1.3742 0.59227 2.4022 0.52135 1.1617 0.66428 1.8037 0.5338 2.3978-0.098 0.44619-0.02588 1.3552 0.16029 2.0201 0.33444 1.1945 0.32888 1.217-0.46742 1.8915-0.78742 0.66697-0.80594 0.73715-0.80837 3.0639-0.0019 1.8594 0.11831 2.6422 0.54874 3.5719 0.33145 0.71592 0.56008 1.7708 0.57344 2.6458 0.01222 0.80036 0.11714 1.8862 0.23315 2.413 0.19315 0.877 0.14184 1.007-0.6082 1.5411-0.73067 0.52029-0.92248 0.54918-1.7759 0.26754-0.75665-0.24972-1.1757-0.24346-2.0041 0.0299-0.85674 0.28275-1.1999 0.28359-1.8852 5e-3 -1.3979-0.56908-1.9964-0.62945-2.8275-0.2852-0.63765 0.26412-1.0362 0.26175-2.0138-0.012-1.0846-0.30367-1.3185-0.28757-2.1239 0.14615-0.80827 0.43528-1.0466 0.45112-2.2289 0.14813-1.0619-0.27215-1.4815-0.27399-2.1206-9e-3 -0.67305 0.27878-1.0201 0.25411-2.2352-0.15892-1.2292-0.4178-1.5719-0.44068-2.3558-0.15721-0.70452 0.25476-1.1752 0.26232-2.0283 0.0326-0.92882-0.2501-1.2763-0.22457-2.1197 0.15574-0.8698 0.39223-1.1702 0.4097-2.1804 0.12685-0.94615-0.2649-1.3563-0.26126-2.1312 0.0189-0.79151 0.28621-1.1089 0.28622-1.8128 4e-5 -1.4151-0.57531-2.0099-0.6362-2.8431-0.29107-0.63765 0.26412-1.0362 0.26175-2.0138-0.012-1.0846-0.30367-1.3185-0.28758-2.1239 0.14615-0.80827 0.43528-1.0466 0.45112-2.2289 0.14812-1.0619-0.27215-1.4815-0.27398-2.1206-9e-3 -0.67305 0.27879-1.0201 0.25412-2.2352-0.15891-1.2229-0.41568-1.5743-0.43982-2.3451-0.16109-0.69298 0.25059-1.1849 0.25781-2.087 0.0307-0.97644-0.24587-1.3207-0.22462-1.9929 0.12301-0.90349 0.46722-1.4757 0.50295-2.3603 0.1474zm100.48-0.12405c-0.80109-0.45794-1.6994-0.49721-2.43-0.10622-0.40227 0.21529-0.95339 0.19964-2.1254-0.0604l-1.5823-0.35102 0.16178-1.2196c0.10541-0.79463 0.02281-1.6135-0.23706-2.3501-0.35997-1.0203-0.35706-1.2185 0.02981-2.0338 0.31212-0.65775 0.38131-1.2603 0.2545-2.2162-0.12474-0.9403-0.06028-1.5331 0.22714-2.0889 0.35968-0.69555 0.35844-0.89484-0.01193-1.9218-0.27677-0.76743-0.36314-1.5946-0.26156-2.505 0.09876-0.88505 0.01511-1.7462-0.23979-2.4687-0.34994-0.99184-0.34707-1.1953 0.02707-1.9188 0.30502-0.58984 0.3726-1.1769 0.2492-2.1646-0.12252-0.98057-0.05446-1.5856 0.24614-2.1881 0.37952-0.76077 0.37765-0.92737-0.02159-1.9252-0.30832-0.77056-0.38744-1.4664-0.2686-2.3622 0.11245-0.84769 0.03585-1.6458-0.23039-2.4004-0.35997-1.0203-0.35706-1.2185 0.02981-2.0338 0.31212-0.65775 0.38131-1.2603 0.2545-2.2162-0.12474-0.9403-0.06028-1.5331 0.22714-2.0889 0.35968-0.69555 0.35844-0.89484-0.01193-1.9218-0.27677-0.76743-0.36314-1.5946-0.26156-2.505 0.09876-0.88505 0.01511-1.7462-0.23979-2.4687-0.34994-0.99184-0.34707-1.1953 0.02708-1.9188 0.30502-0.58984 0.3726-1.1769 0.2492-2.1646-0.12252-0.98057-0.05446-1.5856 0.24614-2.1881 0.37952-0.76077 0.37765-0.92737-0.02159-1.9252-0.30832-0.77056-0.38744-1.4664-0.2686-2.3622 0.11245-0.84769 0.03585-1.6458-0.23039-2.4004-0.35997-1.0202-0.35706-1.2185 0.02981-2.0338 0.31212-0.65775 0.38132-1.2603 0.2545-2.2162-0.12474-0.9403-0.06028-1.5331 0.22714-2.0889 0.35968-0.69555 0.35844-0.89484-0.01193-1.9218-0.27677-0.76743-0.36314-1.5946-0.26156-2.505 0.09876-0.88505 0.01511-1.7462-0.23979-2.4687-0.34994-0.99184-0.34707-1.1953 0.02707-1.9188 0.30587-0.5915 0.37264-1.1766 0.24806-2.1737-0.1223-0.97889-0.0574-1.5823 0.22971-2.1357 0.2201-0.42424 0.33179-1.0438 0.2482-1.3769-0.17669-0.70398 0.22002-0.77234 1.8521-0.31916 0.75929 0.21083 1.2203 0.2007 1.8004-0.0395 0.65106-0.26968 1.0143-0.24321 2.2019 0.16047 1.2392 0.42122 1.5565 0.4391 2.466 0.13893 0.83581-0.27585 1.24-0.27976 2.0281-0.0196 0.84244 0.27802 1.1352 0.25679 2.0314-0.14732 0.91849-0.41418 1.2063-0.43133 2.3442-0.13971 1.0152 0.26019 1.4872 0.26374 2.1714 0.0163 0.72123-0.2608 1.0531-0.24139 1.8962 0.11088 1.1856 0.49536 2.0994 0.54245 2.8396 0.14631 0.37615-0.20131 0.9378-0.18822 1.9857 0.0463 1.3093 0.29301 1.4412 0.38408 1.2688 0.87602-0.10582 0.30196-0.16941 1.2311-0.1413 2.0647 0.0313 0.92883-0.10378 1.8152-0.34892 2.2892-0.35757 0.69146-0.35675 0.91929 8e-3 2.1466 0.30286 1.0198 0.33879 1.5708 0.13972 2.1418-0.20801 0.59668-0.15398 1.1003 0.24129 2.2492 0.46112 1.3402 0.47202 1.5525 0.11515 2.2426-0.28194 0.5452-0.34656 1.1674-0.22693 2.1853 0.12987 1.105 0.066 1.5776-0.28579 2.1144-0.42523 0.64898-0.4259 0.77311-0.0109 2.0225 0.35462 1.0677 0.38376 1.5079 0.14723 2.2246-0.24588 0.745-0.20542 1.1205 0.24343 2.2592 0.49047 1.2443 0.50419 1.4474 0.15439 2.2846-0.25016 0.59873-0.33136 1.3626-0.23307 2.1925 0.10599 0.89492 0.0255 1.5161-0.27069 2.0889-0.38237 0.73942-0.38365 0.94279-0.0138 2.1882 0.30286 1.0198 0.33879 1.5708 0.13972 2.1418-0.20801 0.59668-0.15398 1.1003 0.24129 2.2492 0.46112 1.3402 0.47202 1.5525 0.11515 2.2426-0.28194 0.5452-0.34656 1.1674-0.22693 2.1853 0.12987 1.105 0.066 1.5776-0.28579 2.1144-0.42523 0.64898-0.4259 0.77311-0.0109 2.0225 0.35462 1.0677 0.38376 1.5079 0.14723 2.2246-0.24588 0.745-0.20542 1.1205 0.24343 2.2592 0.49047 1.2443 0.50419 1.4474 0.15439 2.2846-0.25016 0.59873-0.33136 1.3626-0.23307 2.1925 0.10599 0.89492 0.0255 1.5161-0.27069 2.0889-0.38237 0.73942-0.38365 0.94279-0.0138 2.1882 0.30286 1.0198 0.33879 1.5708 0.13972 2.1418-0.20801 0.59668-0.15398 1.1003 0.24129 2.2492 0.46112 1.3402 0.47202 1.5525 0.11515 2.2426-0.28194 0.5452-0.34656 1.1674-0.22693 2.1853 0.12987 1.105 0.066 1.5776-0.28579 2.1144-0.42523 0.64898-0.4259 0.77311-0.0109 2.0225 0.35374 1.065 0.38346 1.5088 0.14869 2.2201-0.2052 0.62178-0.21148 1.1046-0.0209 1.6058 0.14989 0.39424 0.27253 0.82811 0.27253 0.96416 0 0.33904-1.0623 0.31068-2.1156-0.0565-0.67147-0.23407-1.0839-0.22708-1.7961 0.0305-0.79096 0.28601-1.129 0.26478-2.3405-0.14702-1.2013-0.40835-1.5535-0.43161-2.3227-0.15346-0.69298 0.25058-1.1848 0.2578-2.087 0.0306-0.99358-0.25018-1.3184-0.22581-2.0529 0.15404-0.76053 0.39328-1.048 0.40916-2.2385 0.12358-1.02-0.2447-1.5062-0.25256-1.9201-0.031-0.74112 0.39666-1.6362 0.35991-2.4411-0.10023zm65.813 0.11016c-0.25558-0.14884-0.96996-0.35636-1.5875-0.46117l-1.1228-0.19055-0.13897-1.7136c-0.0764-0.94247-0.34433-2.0946-0.59532-2.5604-0.55837-1.0361-0.57675-1.671-0.0679-2.3438 0.21365-0.28247 0.39224-1.0353 0.39687-1.673 5e-3 -0.70157 0.22673-1.5126 0.56128-2.054 0.52887-0.85572 0.53461-0.94815 0.13229-2.1289-0.23131-0.67888-0.42461-1.7787-0.42955-2.444-5e-3 -0.6653-0.23902-1.6859-0.52019-2.268-0.61245-1.2679-0.64421-1.9423-0.12388-2.6303 0.21366-0.28248 0.38846-1.0314 0.38846-1.6644 0-0.75814 0.19171-1.4101 0.56189-1.9108 0.54299-0.73443 0.54744-0.80239 0.13229-2.0208-0.23627-0.69344-0.42959-1.8396-0.42959-2.5471 0-0.76419-0.2148-1.7074-0.52917-2.3236-0.62994-1.2348-0.66349-1.8379-0.1407-2.5291 0.21365-0.28247 0.39224-1.0353 0.39687-1.673 5e-3 -0.70157 0.22673-1.5126 0.56128-2.054 0.52887-0.85572 0.53461-0.94815 0.13229-2.1289-0.23131-0.67888-0.42461-1.7787-0.42955-2.444-5e-3 -0.6653-0.23902-1.6859-0.52019-2.268-0.61245-1.2679-0.64421-1.9423-0.12388-2.6303 0.21366-0.28248 0.38846-1.0314 0.38846-1.6644 0-0.75814 0.19171-1.4101 0.56189-1.9108 0.54299-0.73443 0.54744-0.80239 0.13229-2.0208-0.23627-0.69344-0.42959-1.8396-0.42959-2.5471 0-0.76419-0.2148-1.7074-0.52917-2.3236-0.62994-1.2348-0.66349-1.8379-0.1407-2.5291 0.21365-0.28247 0.39224-1.0353 0.39687-1.673 5e-3 -0.70157 0.22673-1.5126 0.56128-2.054 0.52887-0.85572 0.53461-0.94815 0.13229-2.1289-0.23131-0.67888-0.42461-1.7787-0.42955-2.444-5e-3 -0.6653-0.23902-1.6859-0.52019-2.268-0.61245-1.2679-0.64421-1.9423-0.12388-2.6303 0.21496-0.28419 0.38846-1.0749 0.38846-1.7703 0-0.6912 0.13122-1.3378 0.29158-1.4369 0.16037-0.0991 0.45963-0.58239 0.66501-1.074 0.41653-0.9969 0.746-1.0739 2.1269-0.49687 1.1217 0.46867 2.0401 0.50544 2.7768 0.11119 0.38571-0.20642 0.89091-0.20002 1.8209 0.0231 1.1151 0.2675 1.3926 0.24647 2.0763-0.1574 0.69498-0.41053 0.9607-0.42778 2.2264-0.14452 1.1212 0.25091 1.5909 0.25166 2.1356 3e-3 0.57537-0.26216 0.95128-0.23223 2.1344 0.16991 1.253 0.42589 1.5691 0.4442 2.4798 0.14362 0.83581-0.27584 1.24-0.27976 2.0281-0.0196 0.84094 0.27753 1.1352 0.2568 2.0204-0.1424 0.91517-0.41268 1.2008-0.42775 2.4459-0.12906 1.0764 0.25822 1.5445 0.26601 1.98 0.0329 0.50552-0.27054 0.63137-0.20653 1.1073 0.56326 0.29534 0.47767 0.51248 1.1661 0.48253 1.5299-0.082 0.99555 0.27158 1.8291 1.4222 3.353 0.57317 0.75917 1.1026 1.7639 1.1765 2.2328 0.15138 0.96052 0.70129 1.9058 1.6762 2.8812 1.3115 1.3122 2.4474 2.9502 2.9342 4.2314 0.2729 0.71822 1.0338 2.0911 1.6908 3.0508 0.675 0.98594 1.267 2.1971 1.3608 2.7843 0.098 0.61278 0.59978 1.6107 1.2226 2.4315 0.58105 0.76571 1.454 2.2508 1.9398 3.3003 0.48582 1.0494 1.3987 2.5408 2.0286 3.3142 0.62991 0.77336 1.3061 1.7944 1.5027 2.2691 0.53332 1.2875 0.93625 0.88408 1.0269-1.0282 0.0576-1.2143 0.22188-1.848 0.57769-2.228 0.27349-0.29205 0.62029-0.85579 0.77068-1.2527 0.15038-0.39696 0.8498-1.1358 1.5542-1.6419 1.2078-0.8677 1.3014-1.0227 1.6421-2.7178 0.1987-0.98871 0.33752-2.1757 0.3085-2.6377-0.0535-0.85187 0.68007-1.6735 1.4941-1.6735 0.41862 0 1.1129-0.6384 1.1129-1.0233 0-0.14707 0.47625-0.81766 1.0583-1.4902 0.92683-1.0709 1.0583-1.3852 1.0583-2.5296 0-0.71875 0.0893-1.3074 0.19844-1.3081 0.57216-4e-3 1.6553-1.2839 1.7898-2.1154 0.0879-0.5432 0.47354-1.2324 0.93286-1.6671 0.43068-0.40755 0.79793-0.85404 0.81612-0.99218 0.0182-0.13815 0.0628-0.37024 0.0992-0.51576s0.081-0.44719 0.0992-0.67038c0.0182-0.22318 0.36344-0.7292 0.76722-1.1245 0.40379-0.39527 0.98886-1.2612 1.3002-1.9242 0.31131-0.66302 0.74719-1.3559 0.96863-1.5396 0.22144-0.18377 0.47792-0.677 0.56996-1.096 0.15282-0.69577 0.26341-0.76021 1.2738-0.74216 0.60853 0.0109 1.4041-0.0621 1.7679-0.16213 0.39889-0.1097 1.0553-0.0165 1.6536 0.23482l0.99219 0.41672v38.758c0 30.835-0.0676 38.756-0.33073 38.749-0.1819-5e-3 -0.62838-0.17953-0.99219-0.3875-0.3638-0.20797-0.91841-0.38235-1.2325-0.3875-0.46037-8e-3 -0.67675-0.32245-1.1167-1.6251-0.4953-1.4666-0.50946-1.6857-0.15344-2.3742 0.27989-0.54125 0.34431-1.1659 0.22495-2.1815-0.12929-1.1-0.0656-1.5781 0.28046-2.1063 0.4208-0.64223 0.42045-0.76973-6e-3 -2.1221-0.34204-1.0851-0.38828-1.6261-0.18807-2.2004 0.20086-0.57618 0.15308-1.1157-0.1963-2.2166-0.39922-1.2579-0.41389-1.5718-0.10822-2.3169 0.22181-0.54066 0.29662-1.3426 0.20077-2.1519-0.11423-0.96451-0.0356-1.4884 0.31142-2.076 0.44041-0.74556 0.44091-0.85601 0.01-2.1543-0.35044-1.0551-0.39177-1.5485-0.18044-2.1547 0.21542-0.61797 0.16508-1.1031-0.23522-2.2666-0.46112-1.3402-0.47202-1.5525-0.11515-2.2426 0.28194-0.5452 0.34655-1.1674 0.22693-2.1853-0.12987-1.105-0.066-1.5776 0.28579-2.1144 0.42627-0.65057 0.42664-0.77089 6e-3 -2.0364-0.26461-0.79666-0.3753-1.6363-0.27152-2.0598 0.16695-0.68122 0.15316-0.69322-0.29274-0.25491-0.25736 0.25298-0.53309 1.0269-0.61272 1.7198-0.13538 1.1779-0.21813 1.293-1.2727 1.7697-0.91342 0.41289-1.1864 0.70515-1.4356 1.537-0.16926 0.56496-0.6307 1.2989-1.0254 1.6311-0.5093 0.42854-0.75538 0.93032-0.84755 1.7282-0.0714 0.6184-0.3674 1.4456-0.65771 1.8383-0.29031 0.39267-0.60826 1.0801-0.70655 1.5276-0.0983 0.44753-0.41816 1.0707-0.71081 1.3848-0.59761 0.64146-1.345 2.2713-1.1369 2.4793 0.0747 0.0747-0.19795 0.38614-0.6058 0.69219-1.2849 0.9642-1.3926 1.0896-1.5694 1.8264-0.19394 0.80845-0.95188 1.6462-1.4894 1.6462-0.67374 0-0.99002 0.63946-0.99002 2.0016 0 0.96598-0.15513 1.5638-0.52917 2.0393-0.32566 0.41401-0.52917 1.0734-0.52917 1.7145 0 1.1781-0.49576 1.7736-1.7198 2.0657-0.43656 0.10417-0.91281 0.26905-1.0583 0.36642-0.36312 0.24297-3.2797 0.18742-4.1446-0.0789-0.59565-0.18342-0.81798-0.0904-1.4328 0.59966-0.40026 0.44923-0.79736 0.8153-0.88245 0.8135-0.30925-7e-3 -1.2617-1.7389-1.433-2.6064-0.0966-0.4894-0.75849-1.6314-1.4708-2.5378-1.3953-1.7755-1.9744-2.7814-2.2401-3.8912-0.0927-0.3873-0.7627-1.5925-1.4888-2.6781-1.1801-1.7644-1.507-2.5022-1.5722-3.5479-0.0108-0.17361-0.71132-1.1261-1.5567-2.1167-1.9844-2.3253-2.5764-3.2073-2.8067-4.1823-0.10313-0.43656-0.51357-1.2105-0.9121-1.7198-1.3152-1.6809-1.8263-2.7427-1.7075-3.5478 0.12079-0.81905-0.35366-2.273-0.74171-2.273-0.12787 0-0.23249 0.19117-0.23249 0.42482 0 0.23366-0.3082 0.79111-0.6849 1.2388-0.5197 0.61763-0.64802 0.9983-0.53204 1.5782 0.0897 0.4485-0.01 1.0791-0.24114 1.5262-0.53245 1.0296-0.49647 1.6668 0.16766 2.9685 0.33329 0.6533 0.55241 1.5612 0.53893 2.2328-0.0125 0.62255 0.15148 1.6256 0.36439 2.2291 0.519 1.471 0.49795 1.6521-0.30272 2.6036-0.55145 0.65536-0.6572 0.99372-0.52717 1.6868 0.10746 0.57283 0.0302 1.0422-0.22781 1.3833-0.53657 0.70954-0.50181 1.426 0.13955 2.8759 0.30075 0.6799 0.57722 1.7964 0.61438 2.481 0.0372 0.68467 0.2291 1.7977 0.42653 2.4733 0.34947 1.196 0.3396 1.2515-0.37324 2.0987-0.56348 0.66965-0.69699 1.0463-0.57936 1.6345 0.0897 0.44851-0.01 1.0791-0.24114 1.5262-0.53212 1.029-0.49648 1.6667 0.16568 2.9647 0.31849 0.6243 0.55035 1.5604 0.53803 2.1723-0.0119 0.59137 0.10529 1.4702 0.26044 1.9528s0.22271 0.937 0.15014 1.0096c-0.0726 0.0726-0.63896-5e-3 -1.2586-0.17143-0.947-0.255-1.2876-0.23084-2.1354 0.15151-0.8698 0.39222-1.1702 0.4097-2.1804 0.12684-0.94615-0.2649-1.3563-0.26126-2.1312 0.0189-0.79152 0.28622-1.1089 0.28622-1.8128 4e-5 -1.4151-0.57531-2.0099-0.6362-2.8431-0.29107-0.63765 0.26412-1.0362 0.26175-2.0138-0.012-1.0823-0.30303-1.3191-0.28725-2.1141 0.1409-0.80044 0.43107-1.0449 0.44627-2.3072 0.14344-1.058-0.25382-1.5509-0.26436-1.9662-0.0421-0.68007 0.36397-1.366 0.36741-1.9798 0.01z"/>
 </g>
</svg>
