<svg id="svg" xmlns="http://www.w3.org/2000/svg" xmlns:xlink="http://www.w3.org/1999/xlink" viewBox="0, 0, 400,22.924901185770754" version="1.1"><g id="svgg"><path id="path0" d="M187.524 1.374 C 183.322 1.576,181.913 1.909,182.304 2.604 C 182.691 3.291,182.543 3.281,181.776 2.569 C 181.191 2.026,179.804 1.616,178.696 1.660 L 176.680 1.739 178.656 2.372 C 179.974 2.793,180.171 3.031,179.249 3.083 C 178.488 3.127,177.866 3.696,177.866 4.348 C 177.866 5.000,177.599 5.522,177.273 5.508 C 176.201 5.463,173.913 3.402,173.913 2.482 C 173.913 1.986,173.341 1.581,172.643 1.581 C 171.799 1.581,171.537 2.009,171.861 2.855 C 172.261 3.897,171.970 4.033,170.265 3.605 C 168.549 3.174,168.267 3.311,168.675 4.374 C 168.998 5.214,168.825 5.539,168.182 5.303 C 167.639 5.104,167.283 4.541,167.391 4.051 C 167.504 3.546,166.564 3.162,165.217 3.162 C 163.913 3.162,162.846 3.532,162.846 3.985 C 162.846 4.533,158.250 4.731,149.113 4.578 C 138.526 4.401,135.468 4.122,135.759 3.360 C 136.374 1.753,127.326 1.829,126.297 3.439 C 125.874 4.100,125.713 4.079,125.704 3.360 C 125.697 2.816,125.298 2.372,124.817 2.372 C 124.335 2.372,124.146 2.905,124.397 3.557 C 124.671 4.272,124.401 4.743,123.715 4.743 C 123.091 4.743,122.755 4.286,122.969 3.726 C 123.354 2.724,87.202 2.513,79.842 3.474 C 78.320 3.672,66.047 4.236,52.569 4.726 C 25.356 5.715,21.344 6.040,21.344 7.255 C 21.344 7.725,22.233 7.920,23.380 7.700 C 24.500 7.486,25.123 7.564,24.763 7.874 C 24.126 8.424,8.583 11.067,5.987 11.067 C 3.998 11.067,0.069 14.279,0.544 15.517 C 0.772 16.113,1.633 16.601,2.456 16.601 C 3.279 16.601,3.953 16.945,3.953 17.366 C 3.953 17.788,4.439 17.945,5.034 17.717 C 5.668 17.474,6.285 17.948,6.524 18.859 C 6.813 19.967,6.444 20.564,5.244 20.927 C 3.584 21.428,3.583 21.447,5.138 22.125 C 8.337 23.518,387.112 23.089,389.820 21.689 C 391.338 20.904,393.127 20.630,394.722 20.939 L 397.233 21.425 394.902 19.311 L 392.571 17.197 395.100 17.752 C 397.111 18.194,397.628 18.052,397.628 17.059 C 397.628 16.372,397.184 15.805,396.640 15.798 C 395.886 15.789,395.876 15.644,396.599 15.184 C 397.230 14.783,397.295 14.195,396.796 13.418 C 396.138 12.394,395.953 12.397,395.269 13.439 C 394.643 14.392,394.488 14.255,394.479 12.743 C 394.467 10.987,394.233 10.888,390.974 11.255 C 387.143 11.687,386.528 10.063,390.176 9.147 C 391.231 8.882,392.095 8.139,392.095 7.495 C 392.095 6.851,392.806 6.324,393.676 6.324 C 394.545 6.324,395.257 5.924,395.257 5.435 C 395.257 4.869,394.397 4.717,392.894 5.018 C 389.958 5.605,388.110 4.956,388.657 3.530 C 389.194 2.132,383.855 2.821,381.173 4.496 C 379.576 5.492,373.124 5.561,367.984 4.635 C 367.549 4.557,362.569 4.686,356.917 4.923 C 351.265 5.159,347.796 5.193,349.209 4.998 C 350.793 4.779,351.779 4.193,351.779 3.471 C 351.779 2.172,346.739 2.663,344.872 4.144 C 344.334 4.571,343.360 4.715,342.707 4.465 C 342.055 4.214,341.606 4.397,341.709 4.870 C 341.813 5.344,341.441 5.898,340.884 6.102 C 340.327 6.306,339.972 5.995,340.094 5.411 C 340.273 4.557,337.599 4.326,326.482 4.231 C 318.874 4.167,311.136 3.950,309.289 3.749 C 307.358 3.539,305.929 3.716,305.929 4.165 C 305.929 4.635,304.649 4.740,302.709 4.430 C 300.894 4.140,299.678 4.221,299.922 4.617 C 300.160 5.002,298.852 5.313,297.016 5.307 C 293.918 5.296,293.833 5.242,295.850 4.558 C 298.862 3.537,298.569 2.530,295.259 2.530 C 293.739 2.530,292.694 2.852,292.937 3.246 C 293.186 3.648,291.286 3.915,288.604 3.855 C 285.633 3.787,284.014 3.447,284.319 2.953 C 284.634 2.444,283.847 2.350,282.128 2.691 C 274.556 4.194,269.394 4.504,254.782 4.331 C 241.284 4.172,238.614 3.944,237.532 2.862 C 236.827 2.157,235.654 1.592,234.924 1.605 C 233.727 1.627,233.734 1.709,234.997 2.444 C 236.537 3.341,236.137 4.743,234.341 4.743 C 233.714 4.743,233.202 4.209,233.202 3.557 C 233.202 2.028,231.308 2.028,230.040 3.557 C 228.949 4.871,227.290 5.203,228.063 3.953 C 228.332 3.518,227.798 3.162,226.877 3.162 C 225.957 3.162,225.423 3.518,225.692 3.953 C 225.960 4.387,225.649 4.743,225.000 4.743 C 224.173 4.743,223.927 4.152,224.178 2.767 C 224.517 0.897,224.344 0.791,220.964 0.791 C 218.999 0.791,217.391 1.159,217.391 1.609 C 217.391 2.137,216.902 2.170,216.008 1.702 C 214.660 0.995,199.099 0.816,187.524 1.374 M226.087 1.713 C 226.087 2.075,227.154 2.372,228.458 2.372 C 229.763 2.372,230.830 2.075,230.830 1.713 C 230.830 1.350,229.763 1.054,228.458 1.054 C 227.154 1.054,226.087 1.350,226.087 1.713 M301.976 2.372 C 301.976 2.806,302.688 3.162,303.557 3.162 C 304.427 3.162,305.138 2.806,305.138 2.372 C 305.138 1.937,304.427 1.581,303.557 1.581 C 302.688 1.581,301.976 1.937,301.976 2.372 M192.334 4.348 C 192.249 4.783,191.537 5.246,190.753 5.378 C 189.529 5.585,189.496 5.491,190.514 4.717 C 191.498 3.968,191.413 3.878,190.008 4.182 C 189.078 4.384,187.833 4.227,187.242 3.833 C 186.530 3.359,187.235 3.192,189.328 3.337 C 191.067 3.458,192.420 3.913,192.334 4.348 M287.442 5.755 C 287.755 6.068,286.727 6.324,285.159 6.324 C 283.590 6.324,282.123 6.026,281.898 5.662 C 281.402 4.861,286.636 4.949,287.442 5.755 " stroke="none" fill-rule="evenodd"></path></g></svg>