<?xml version="1.0" encoding="UTF-8"?>
<!-- Created with Inkscape (http://www.inkscape.org/) -->
<svg version="1.1" viewBox="0 0 16.9 16.9" xmlns="http://www.w3.org/2000/svg" xmlns:cc="http://creativecommons.org/ns#" xmlns:dc="http://purl.org/dc/elements/1.1/" xmlns:rdf="http://www.w3.org/1999/02/22-rdf-syntax-ns#">
 <metadata>
  <rdf:RDF>
   <cc:Work rdf:about="">
    <dc:format>image/svg+xml</dc:format>
    <dc:type rdf:resource="http://purl.org/dc/dcmitype/StillImage"/>
    <dc:title/>
   </cc:Work>
  </rdf:RDF>
 </metadata>
 <g transform="translate(-72.6 -135)">
  <path d="m74.7 135h12.6a2.11 2.11 0 0 1 2.17 2.17v12.6a2.11 2.11 0 0 1-2.17 2.17h-12.6a2.11 2.11 0 0 1-2.17-2.17v-12.6a2.11 2.11 0 0 1 2.17-2.17zm10.2 1.88a0.767 0.767 0 0 0-0.767 0.767v1.83a0.767 0.767 0 0 0 0.767 0.767h1.9a0.767 0.767 0 0 0 0.767-0.767v-1.83a0.767 0.767 0 0 0-0.767-0.767zm2.7 5.29h-1.48a5.23 5.23 0 0 1 0.212 1.46c0 2.8-2.35 5.11-5.27 5.11s-5.27-2.28-5.27-5.11a5.23 5.23 0 0 1 0.212-1.46h-1.56v7.14a0.655 0.655 0 0 0 0.661 0.661h11.8a0.655 0.655 0 0 0 0.661-0.661zm-6.54-2.04a3.37 3.37 0 0 0-3.41 3.31 3.34 3.34 0 0 0 3.41 3.28 3.37 3.37 0 0 0 3.41-3.31 3.34 3.34 0 0 0-3.41-3.28z" stroke-width=".265" data-name="layer1"/>
 </g>
 <style>.st0{fill: inherit;}</style>
</svg>
