<svg aria-hidden="true" aria-role="link" viewBox="0 0 16.9 16.9">
  <path transform="translate(-72.6 -135)" d="m74.7 135h12.6a2.11 2.11 0 0 1 2.17 2.17v12.6a2.11 2.11 0 0 1-2.17 2.17h-12.6a2.11 2.11 0 0 1-2.17-2.17v-12.6a2.11 2.11 0 0 1 2.17-2.17zm10.2 1.88a0.767 0.767 0 0 0-0.767 0.767v1.83a0.767 0.767 0 0 0 0.767 0.767h1.9a0.767 0.767 0 0 0 0.767-0.767v-1.83a0.767 0.767 0 0 0-0.767-0.767zm2.7 5.29h-1.48a5.23 5.23 0 0 1 0.212 1.46c0 2.8-2.35 5.11-5.27 5.11s-5.27-2.28-5.27-5.11a5.23 5.23 0 0 1 0.212-1.46h-1.56v7.14a0.655 0.655 0 0 0 0.661 0.661h11.8a0.655 0.655 0 0 0 0.661-0.661zm-6.54-2.04a3.37 3.37 0 0 0-3.41 3.31 3.34 3.34 0 0 0 3.41 3.28 3.37 3.37 0 0 0 3.41-3.31 3.34 3.34 0 0 0-3.41-3.28z" stroke-width=".265" data-name="layer1"/>
</svg>
