<svg  aria-hidden="true" viewBox="0 0 20.2 23.6">
  <g transform="translate(-56.1 -156), matrix(.265 0 0 .265 56.1 156)">
    <path d="m76.5 23.3a2.06 2.06 0 0 0-1-1.78l-36.2-21.2a2.24 2.24 0 0 0-0.5-0.22 2.15 2.15 0 0 0-1.07 0 2.45 2.45 0 0 0-0.5 0.22l-36.2 21.2a2 2 0 0 0-1 1.78 2.35 2.35 0 0 0 0.06 0.51h-0.06v42a2.21 2.21 0 0 0 0 0.35 0.86 0.86 0 0 0 0 0.17 0.15 0.15 0 0 0 0 0.07 1.84 1.84 0 0 0 0.17 0.43s0.06 0.07 0.09 0.12a2.86 2.86 0 0 0 0.24 0.3 0.78 0.78 0 0 0 0.21 0.16c0.07 0 0.12 0.11 0.2 0.16l36.3 21.2a2.12 2.12 0 0 0 2.07 0l36.2-21.2a1.75 1.75 0 0 0 0.2-0.16 1 1 0 0 0 0.22-0.16c0.09-0.1 0.16-0.21 0.23-0.3s0.06-0.07 0.09-0.12a2.3 2.3 0 0 0 0.18-0.43 0.19 0.19 0 0 0 0-0.07 1.13 1.13 0 0 0 0-0.18 2 2 0 0 0 0-0.34v-42a1.45 1.45 0 0 0 0-0.25c0.07-0.08 0.1-0.16 0.1-0.24zm-6.1 0-13.3 7.8-13.3-23.4zm-32.2-17.1 15.3 27-3.88 2.26a14.6 14.6 0 0 0-22.9 0l-3.89-2.27zm10.5 38.4a10.6 10.6 0 0 1-8.48 10.3v-9.14l7.93-4.54a10.6 10.6 0 0 1 0.55 3.35zm-16.1-36.8-13.3 23.4-13.3-7.8zm-28.6 19.2 13.3 7.79-13.3 23.3zm32.1 56.6-26.6-15.6h26.6zm0-19.7h-30.6l15.3-27 3.83 2.26a14.6 14.6 0 0 0 11.5 20zm0-8.87a10.5 10.5 0 0 1-7.89-13.8l7.89 4.63zm2-12.7-7.81-4.61a10.5 10.5 0 0 1 15.7 0zm2 41.3v-15.6h26.7zm0-19.7v-4.74a14.6 14.6 0 0 0 11.6-19.9l3.87-2.23 15.3 26.8zm32.2-5.74-13.2-23.1 13.2-7.55z"/>
  </g>
</svg>
