<svg xmlns="http://www.w3.org/2000/svg" viewBox="0 0 219 89.07"><defs><style>.cls-1{fill:inherit;}</style></defs><g id="Layer_2" data-name="Layer 2"><g id="Layer_1-2" data-name="Layer 1"><polygon class="cls-1" points="107.26 23.25 98.52 23.25 98.52 65.11 128.16 65.11 128.16 57.58 107.26 57.58 107.26 23.25"/><path class="cls-1" d="M165.08,46.33a9.42,9.42,0,0,0-4.84-3.69,9.83,9.83,0,0,0,3.2-2.39,9.3,9.3,0,0,0,1.93-6.15,10.71,10.71,0,0,0-1.92-6.4q-3.19-4.34-10.85-4.45H132.38V65.11h18.86a28.91,28.91,0,0,0,5.91-.57,11.86,11.86,0,0,0,4.73-2.1,11.57,11.57,0,0,0,3-3.3,12.18,12.18,0,0,0,1.87-6.68A11.14,11.14,0,0,0,165.08,46.33ZM140.73,30.51h9.1a15.65,15.65,0,0,1,4.95.67c1.5.62,2.25,1.9,2.25,3.86a4,4,0,0,1-1.7,3.67,8.44,8.44,0,0,1-4.43,1H140.73Zm14.4,26.59a10.1,10.1,0,0,1-4.24.73H140.73V46.68H151a10.7,10.7,0,0,1,4.18.7,4.51,4.51,0,0,1,2.67,4.5C157.88,54.44,157,56.19,155.13,57.1Z"/><rect class="cls-1" x="169.34" y="45.06" width="15.84" height="7.67"/><path class="cls-1" d="M197.6,58a9.74,9.74,0,0,1,1.89-2.25q1.13-1,4.17-3.12l3.24-2.3a27.12,27.12,0,0,0,5.89-5.25,13,13,0,0,0,2.73-8.12,12.55,12.55,0,0,0-3.86-9.59q-3.87-3.62-10.41-3.62-8.26,0-11.51,6.16a19.81,19.81,0,0,0-1.9,8.49h7.86a13.81,13.81,0,0,1,.91-5.05c.89-1.84,2.57-2.75,5-2.75a5.08,5.08,0,0,1,4.14,1.73,6.5,6.5,0,0,1,1.45,4.34,8.47,8.47,0,0,1-2.53,5.91,59.67,59.67,0,0,1-7.24,5.74Q191,52.89,189.28,57a19.49,19.49,0,0,0-1.9,8.1h28.2V58Z"/><path class="cls-1" d="M76.52,23.3a2.06,2.06,0,0,0-1-1.78L39.29.29a2.24,2.24,0,0,0-.5-.22,2.15,2.15,0,0,0-1.07,0,2.45,2.45,0,0,0-.5.22L1,21.52A2,2,0,0,0,0,23.3a2.35,2.35,0,0,0,.06.51H0v42a2.21,2.21,0,0,0,0,.35.86.86,0,0,0,0,.17.15.15,0,0,0,0,.07,1.84,1.84,0,0,0,.17.43h0s.06.07.09.12a2.86,2.86,0,0,0,.24.3.78.78,0,0,0,.21.16c.07,0,.12.11.2.16L37.22,88.8a2.12,2.12,0,0,0,2.07,0L75.5,67.55a1.75,1.75,0,0,0,.2-.16,1,1,0,0,0,.22-.16c.09-.1.16-.21.23-.3s.06-.07.09-.12h0a2.3,2.3,0,0,0,.18-.43.19.19,0,0,0,0-.07,1.13,1.13,0,0,0,0-.18,2,2,0,0,0,0-.34h0v-42a1.45,1.45,0,0,0,0-.25C76.49,23.46,76.52,23.38,76.52,23.3Zm-6.1,0-13.3,7.8L43.81,7.69ZM38.26,6.19l15.32,27L49.7,35.45a14.6,14.6,0,0,0-22.88,0l-3.89-2.27ZM48.78,44.54A10.56,10.56,0,0,1,40.3,54.87V45.73l7.93-4.54A10.64,10.64,0,0,1,48.78,44.54ZM32.7,7.69,19.4,31.1,6.09,23.3ZM4.09,26.88l13.28,7.79L4.09,58ZM36.21,83.44,9.59,67.83H36.21Zm0-19.7H5.57l15.33-27L24.73,39A14.59,14.59,0,0,0,36.21,59Zm0-8.87a10.52,10.52,0,0,1-7.89-13.79l7.89,4.63Zm2-12.7L30.4,37.56a10.47,10.47,0,0,1,15.71,0Zm2,41.27V67.83H66.92Zm0-19.7V59A14.58,14.58,0,0,0,51.83,39.13L55.7,36.9,71,63.74ZM72.42,58,59.26,34.88l13.16-7.55Z"/></g></g></svg>