<?xml version="1.0" encoding="UTF-8" standalone="no"?>
<!-- Created with Inkscape (http://www.inkscape.org/) -->

<svg
   xmlns:dc="http://purl.org/dc/elements/1.1/"
   xmlns:cc="http://creativecommons.org/ns#"
   xmlns:rdf="http://www.w3.org/1999/02/22-rdf-syntax-ns#"
   xmlns:svg="http://www.w3.org/2000/svg"
   xmlns="http://www.w3.org/2000/svg"
   xmlns:sodipodi="http://sodipodi.sourceforge.net/DTD/sodipodi-0.dtd"
   xmlns:inkscape="http://www.inkscape.org/namespaces/inkscape"
   width="330.88336mm"
   height="52.559196mm"
   viewBox="0 0 330.88336 52.559196"
   version="1.1"
   id="svg8"
   inkscape:version="0.92.4 (5da689c313, 2019-01-14)"
   sodipodi:docname="logo.svg">
  <defs
     id="defs2">
    <clipPath
       id="clipPath932"
       clipPathUnits="userSpaceOnUse">
      <path
         inkscape:connector-curvature="0"
         id="path930"
         d="M 0,1000 H 1000 V 0 H 0 Z" />
    </clipPath>
  </defs>
  <sodipodi:namedview
     id="base"
     pagecolor="#575751"
     bordercolor="#666666"
     borderopacity="1.0"
     inkscape:pageopacity="0"
     inkscape:pageshadow="2"
     inkscape:zoom="0.7"
     inkscape:cx="491.76896"
     inkscape:cy="130.33298"
     inkscape:document-units="mm"
     inkscape:current-layer="layer1"
     showgrid="false"
     inkscape:window-width="1920"
     inkscape:window-height="1027"
     inkscape:window-x="-8"
     inkscape:window-y="-8"
     inkscape:window-maximized="1" />
  <metadata
     id="metadata5">
    <rdf:RDF>
      <cc:Work
         rdf:about="">
        <dc:format>image/svg+xml</dc:format>
        <dc:type
           rdf:resource="http://purl.org/dc/dcmitype/StillImage" />
        <dc:title></dc:title>
      </cc:Work>
    </rdf:RDF>
  </metadata>
  <g
     inkscape:label="Layer 1"
     inkscape:groupmode="layer"
     id="layer1"
     transform="translate(-1.6237941,-135.40493)">
    <g
       transform="matrix(0.35277777,0,0,-0.35277777,-9.4256643,339.23488)"
       inkscape:label="Everfall_Logo_White"
       id="g912">
      <g
         transform="translate(231.6641,498.4336)"
         id="g914">
        <path
           inkscape:connector-curvature="0"
           id="path916"
           style="fill:#ffffff;fill-opacity:1;fill-rule:nonzero;stroke:none"
           d="M 0,0 V -17.116 H 42.091 V -37.92 H 0 -7.577 -26.097 V 54.248 H -7.577 0 42.091 V 33.444 H 0 V 20.014 H 39.285 V 0 Z" />
      </g>
      <g
         transform="translate(345.312,502.6475)"
         id="g918">
        <path
           inkscape:connector-curvature="0"
           id="path920"
           style="fill:#ffffff;fill-opacity:1;fill-rule:nonzero;stroke:none"
           d="M 0,0 21.467,50.034 H 53.456 L 0,-48.322 -53.736,50.034 h 32.27 z" />
      </g>
      <g
         transform="translate(444.3696,498.4336)"
         id="g922">
        <path
           inkscape:connector-curvature="0"
           id="path924"
           style="fill:#ffffff;fill-opacity:1;fill-rule:nonzero;stroke:none"
           d="M 0,0 V -17.116 H 42.091 V -37.92 H 0 -7.577 -26.097 V 54.248 H -7.577 0 42.091 V 33.444 H 0 V 20.014 H 39.285 V 0 Z" />
      </g>
      <g
         id="g926">
        <g
           clip-path="url(#clipPath932)"
           id="g928">
          <g
             transform="translate(542.1641,510.5474)"
             id="g934">
            <path
               inkscape:connector-curvature="0"
               id="path936"
               style="fill:#ffffff;fill-opacity:1;fill-rule:nonzero;stroke:none"
               d="m 0,0 h 9.119 c 4.397,0 7.74,0.9 10.032,2.699 2.292,1.8 3.438,4.323 3.438,7.572 0,3.335 -1.146,5.88 -3.438,7.636 -2.292,1.756 -5.635,2.634 -10.032,2.634 H 0 Z M 0,-19.619 V -50.034 H -27.22 V 42.134 H -9.821 0 11.505 c 8.979,0 16.391,-1.295 22.238,-3.884 5.846,-2.59 10.195,-6.21 13.048,-10.863 2.854,-4.652 4.279,-10.007 4.279,-16.063 0,-6.233 -1.519,-11.741 -4.559,-16.525 -3.04,-4.784 -7.74,-8.448 -14.101,-10.994 L 56.963,-50.034 H 25.114 L 5.893,-19.619 Z" />
          </g>
          <g
             transform="translate(645.2891,495.0107)"
             id="g938">
            <path
               inkscape:connector-curvature="0"
               id="path940"
               style="fill:#ffffff;fill-opacity:1;fill-rule:nonzero;stroke:none"
               d="M 0,0 V -34.497 H -26.097 V 57.67 H -7.576 0 36.479 V 35.813 H 0 V 20.277 H 35.076 V 0 Z" />
          </g>
          <g
             transform="translate(732.4199,494.2207)"
             id="g942">
            <path
               inkscape:connector-curvature="0"
               id="path944"
               style="fill:#ffffff;fill-opacity:1;fill-rule:nonzero;stroke:none"
               d="m 0,0 h 19.222 l -9.54,20.54 z m -4.91,-18.96 -7.998,-14.747 H -44.056 L 9.682,64.649 63.138,-33.707 H 32.271 l -8.279,14.747 z" />
          </g>
          <g
             transform="translate(815.0615,552.6812)"
             id="g946">
            <path
               inkscape:connector-curvature="0"
               id="path948"
               style="fill:#ffffff;fill-opacity:1;fill-rule:nonzero;stroke:none"
               d="M 0,0 H 27.22 V -70.311 H 67.066 V -92.167 H 0 Z" />
          </g>
          <g
             transform="translate(902.1924,552.6812)"
             id="g950">
            <path
               inkscape:connector-curvature="0"
               id="path952"
               style="fill:#ffffff;fill-opacity:1;fill-rule:nonzero;stroke:none"
               d="M 0,0 H 27.22 V -70.311 H 67.066 V -92.167 H 0 Z" />
          </g>
          <g
             transform="translate(78.1733,576.7837)"
             id="g954">
            <path
               inkscape:connector-curvature="0"
               id="path956"
               style="fill:#ffffff;fill-opacity:1;fill-rule:nonzero;stroke:none"
               d="M 0,0 93.443,-53.95 1.652,-106.946 v 24.577 l 52.748,30.454 -72.105,41.598 z" />
          </g>
          <g
             transform="translate(31.3213,469.8867)"
             id="g958">
            <path
               inkscape:connector-curvature="0"
               id="path960"
               style="fill:#ffffff;fill-opacity:1;fill-rule:nonzero;stroke:none"
               d="M 0,0 V 107.899 L 91.792,54.903 70.508,42.615 17.76,73.069 17.787,-10.175 Z" />
          </g>
          <g
             transform="translate(147.2681,482.748)"
             id="g962">
            <path
               inkscape:connector-curvature="0"
               id="path964"
               style="fill:#ffffff;fill-opacity:1;fill-rule:nonzero;stroke:none"
               d="M 0,0 -93.444,-53.949 -93.443,52.042 -72.16,39.754 V -21.154 L -0.083,20.491 Z" />
          </g>
        </g>
      </g>
    </g>
  </g>
</svg>
