<svg id="svg" xmlns="http://www.w3.org/2000/svg" xmlns:xlink="http://www.w3.org/1999/xlink" viewBox="0, 0, 400,400" version="1.1"><g id="svgg"><path id="path0" d="M183.984 7.061 C 73.603 16.647,-5.728 114.916,8.046 225.000 C 8.727 230.447,10.762 241.752,11.127 242.116 C 11.256 242.246,33.107 220.601,59.685 194.017 L 108.008 145.681 130.587 168.423 L 153.167 191.164 141.723 202.613 L 130.278 214.062 119.110 202.899 L 107.941 191.735 65.298 234.388 C 41.845 257.847,22.656 277.269,22.656 277.548 C 22.656 280.619,37.018 305.399,44.787 315.734 C 131.837 431.525,309.714 414.993,373.793 285.156 C 378.954 274.698,386.328 255.378,386.328 252.312 C 386.328 251.599,291.175 155.859,290.466 155.859 C 290.233 155.859,279.977 165.922,267.677 178.222 L 245.312 200.584 233.710 188.981 L 222.107 177.379 230.736 168.768 C 235.482 164.031,239.451 160.156,239.557 160.156 C 239.662 160.156,251.056 148.816,264.877 134.955 C 278.697 121.095,290.146 109.801,290.319 109.859 C 290.492 109.916,313.760 133.078,342.026 161.329 L 393.419 212.695 393.239 198.242 C 392.013 99.263,319.990 19.310,221.484 7.577 C 215.278 6.838,190.484 6.496,183.984 7.061 M277.344 269.726 L 265.824 281.252 230.079 245.509 C 210.419 225.850,194.159 209.766,193.945 209.766 C 193.731 209.766,177.383 225.938,157.616 245.704 L 121.676 281.642 110.156 270.117 L 98.636 258.592 146.290 210.936 L 193.945 163.281 241.405 210.741 L 288.865 258.201 277.344 269.726 " stroke="none" fill-rule="evenodd"></path></g></svg>