<svg xmlns="http://www.w3.org/2000/svg" width="168.72" height="17.09" viewBox="0 0 168.72 17.09">
  <defs>
    <style>
      .cls-1 {
        fill: #fff;
        fill-rule: evenodd;
      }
    </style>
  </defs>
  <path id="EVERFALL" class="cls-1" d="M1185.9,2239.6v-2.49h5.54v-3.96h-5.54v-2.32h6.32v-4.17h-11.38v17.09h11.63v-4.15h-6.57Zm27.07-12.94-3.37,12.18-3.37-12.18h-5.47l5.72,17.09h6.25l5.71-17.09h-5.47Zm19.31,12.94v-2.49h5.54v-3.96h-5.54v-2.32h6.32v-4.17h-11.38v17.09h11.63v-4.15h-6.57Zm25.78,4.15h5.52l-3.64-6.45a4.749,4.749,0,0,0,2.44-4.52c0-3.76-2.29-6.12-7.01-6.12h-7.01v17.09h5.06v-5.5h1.86Zm-4.64-12.5h1.95c1.32,0,1.91.51,1.91,1.53,0,1.13-.76,1.52-1.91,1.52h-1.95v-3.05Zm30.47-.2v-4.39h-11.53v17.09h5.06v-5.59h5.76v-4.23h-5.76v-2.88h6.47Zm19.28,12.7h5.47l-5.71-17.09h-6.25l-5.72,17.09h5.47l0.76-2.74h5.22Zm-4.98-6.35,1.61-5.84,1.61,5.84h-3.22Zm24.29,1.76v-12.5h-5.06v17.09h11.43v-4.59h-6.37Zm20.7,0v-12.5h-5.06v17.09h11.43v-4.59h-6.37Z" transform="translate(-1180.84 -2226.66)"/>
</svg>
